<?xml version="1.0" encoding="UTF-8"?>
<svg xmlns="http://www.w3.org/2000/svg" xmlns:xlink="http://www.w3.org/1999/xlink" version="1.1" viewBox="0 0 500 500">
  <defs>
    <style>
      .cls-1, .cls-2, .cls-3, .cls-4 {
        fill: none;
      }

      .cls-2, .cls-3, .cls-5 {
        stroke-miterlimit: 10;
      }

      .cls-2, .cls-5, .cls-4 {
        stroke: #ffa691;
        stroke-width: .7px;
      }

      .cls-3 {
        stroke: #f96846;
        stroke-width: .8px;
      }

      .cls-5 {
        fill: #fff6e9;
      }

      .cls-4 {
        stroke-linecap: round;
        stroke-linejoin: round;
      }

      .cls-6 {
        fill: url(#New_Pattern_Swatch_3);
      }
    </style>
    <pattern id="New_Pattern_Swatch_3"  x="0" y="0" width="297" height="292" patternTransform="translate(-91.2 -80.3)" patternUnits="userSpaceOnUse" viewBox="0 0 297 292">
      <g opacity="0.2">
        <rect class="cls-1" width="297" height="292"/>
        <g>
          <g>
            <g>
              <path class="cls-2" d="M272.9,281.2c0-1.1-.9-2.1-2.1-2.1s-.7.1-1,.3c-.4-.8-1.3-1.3-2.2-1.3s-1.7.5-2.2,1.3c-.3-.2-.6-.3-1-.3-1.1,0-2.1.9-2.1,2.1,0,2.3,2.5,8.7,5.3,8.7s5.3-6.4,5.3-8.7Z"/>
              <g>
                <path class="cls-2" d="M259.1,283.5c-1.1-.4-2.2.2-2.6,1.3-.1.3-.1.7,0,1-.9.2-1.6.8-1.9,1.7-.3.9,0,1.8.5,2.5-.3.2-.5.5-.6.9-.4,1.1.2,2.2,1.3,2.6,2.2.7,9,.4,9.9-2.3s-4.5-7-6.7-7.7Z"/>
                <path class="cls-2" d="M276.2,283.5c1.1-.4,2.2.2,2.6,1.3.1.3.1.7,0,1,.9.2,1.6.8,1.9,1.7.3.9,0,1.8-.5,2.5.3.2.5.5.6.9.4,1.1-.2,2.2-1.3,2.6-2.2.7-9,.4-9.9-2.3s4.5-7,6.7-7.7Z"/>
              </g>
            </g>
            <path class="cls-2" d="M267.6,307.8c-8.7,0-15.8-7.1-15.8-15.8s7.1-15.8,15.8-15.8,15.8,7.1,15.8,15.8-7.1,15.8-15.8,15.8Z"/>
            <line class="cls-2" x1="267.6" y1="276.2" x2="267.6" y2="278.1"/>
            <g>
              <line class="cls-2" x1="252.7" y1="286.8" x2="254.6" y2="287.4"/>
              <line class="cls-2" x1="282.5" y1="286.8" x2="280.6" y2="287.4"/>
            </g>
            <g>
              <path class="cls-4" d="M275.6,291c-1.9.3-4.2.5-6.1.2,0,0,1.7-1.6,5.2-3.4"/>
              <path class="cls-4" d="M259.6,291c1.9.3,4.2.5,6.1.2,0,0-1.7-1.6-5.2-3.4"/>
              <path class="cls-4" d="M269.3,284c-.3,1.9-.8,4.1-1.7,5.9,0,0-1-2.1-1.7-6"/>
            </g>
            <path class="cls-5" d="M267.6,296.4c-2.4,0-4.4-2-4.4-4.4s2-4.4,4.4-4.4,4.4,2,4.4,4.4-2,4.4-4.4,4.4Z"/>
          </g>
          <g>
            <circle class="cls-3" cx="193.6" cy="292" r="31"/>
            <path class="cls-3" d="M193.6,316.7c-13.6,0-24.7-11.1-24.7-24.7s11.1-24.7,24.7-24.7,24.7,11.1,24.7,24.7-11.1,24.7-24.7,24.7Z"/>
            <path class="cls-3" d="M193.6,313.8c-12,0-21.8-9.8-21.8-21.8s9.8-21.8,21.8-21.8,21.8,9.8,21.8,21.8-9.8,21.8-21.8,21.8Z"/>
            <g>
              <line class="cls-3" x1="193.6" y1="270.2" x2="193.6" y2="313.8"/>
              <line class="cls-3" x1="215.5" y1="292" x2="171.8" y2="292"/>
            </g>
            <g>
              <g>
                <path class="cls-3" d="M196.3,287.4v-14.7l2.3,1.4c2.5,1.5,4,4.2,4,7.1v1.9h-2.5c-.7,0-1.3-.6-1.3-1.3v-2.7"/>
                <path class="cls-3" d="M206.7,287h-2.7c-.7,0-1.3-.6-1.3-1.3v-2.5h1.9c2.8,0,5.4,1.4,6.9,3.8l1.5,2.5h-14.4"/>
              </g>
              <g>
                <path class="cls-3" d="M190.9,287.4v-14.7l-2.3,1.4c-2.5,1.5-4,4.2-4,7.1v1.9h2.5c.7,0,1.3-.6,1.3-1.3v-2.7"/>
                <path class="cls-3" d="M180.6,287h2.7c.7,0,1.3-.6,1.3-1.3v-2.5h-1.9c-2.8,0-5.4,1.4-6.9,3.8l-1.5,2.5h14.4"/>
              </g>
            </g>
            <g>
              <g>
                <path class="cls-3" d="M165.6,298.2c-.4-2-.7-4.1-.7-6.2s.2-4.2.7-6.3"/>
                <path class="cls-3" d="M221.6,298.2c.4-2,.7-4.1.7-6.2s-.2-4.2-.7-6.3"/>
                <path class="cls-3" d="M199.8,264c-2-.4-4.1-.7-6.2-.7-2.1,0-4.2.2-6.3.7"/>
                <path class="cls-3" d="M217.8,276.6c-1.1-1.7-2.4-3.4-3.9-4.9-1.5-1.5-3.2-2.8-4.9-3.9"/>
                <path class="cls-3" d="M178.2,267.8c-1.7,1.1-3.4,2.4-4.9,3.9-1.5,1.5-2.8,3.2-3.9,4.9"/>
              </g>
              <g>
                <line class="cls-3" x1="193.7" y1="263.3" x2="193.7" y2="267.4"/>
                <line class="cls-3" x1="165" y1="292" x2="169" y2="292"/>
                <line class="cls-3" x1="222.3" y1="292" x2="218.3" y2="292"/>
                <line class="cls-3" x1="173.4" y1="271.7" x2="176.2" y2="274.6"/>
                <line class="cls-3" x1="213.9" y1="271.7" x2="211.1" y2="274.6"/>
              </g>
            </g>
          </g>
        </g>
        <g>
          <g>
            <g>
              <path class="cls-2" d="M123.9,281.2c0-1.1-.9-2.1-2.1-2.1s-.7.1-1,.3c-.4-.8-1.3-1.3-2.2-1.3s-1.7.5-2.2,1.3c-.3-.2-.6-.3-1-.3-1.1,0-2.1.9-2.1,2.1,0,2.3,2.5,8.7,5.3,8.7s5.3-6.4,5.3-8.7Z"/>
              <g>
                <path class="cls-2" d="M110.1,283.5c-1.1-.4-2.2.2-2.6,1.3-.1.3-.1.7,0,1-.9.2-1.6.8-1.9,1.7-.3.9,0,1.8.5,2.5-.3.2-.5.5-.6.9-.4,1.1.2,2.2,1.3,2.6,2.2.7,9,.4,9.9-2.3s-4.5-7-6.7-7.7Z"/>
                <path class="cls-2" d="M127.2,283.5c1.1-.4,2.2.2,2.6,1.3.1.3.1.7,0,1,.9.2,1.6.8,1.9,1.7.3.9,0,1.8-.5,2.5.3.2.5.5.6.9.4,1.1-.2,2.2-1.3,2.6-2.2.7-9,.4-9.9-2.3s4.5-7,6.7-7.7Z"/>
              </g>
            </g>
            <path class="cls-2" d="M118.6,307.8c-8.7,0-15.8-7.1-15.8-15.8s7.1-15.8,15.8-15.8,15.8,7.1,15.8,15.8-7.1,15.8-15.8,15.8Z"/>
            <line class="cls-2" x1="118.6" y1="276.2" x2="118.6" y2="278.1"/>
            <g>
              <line class="cls-2" x1="103.7" y1="286.8" x2="105.6" y2="287.4"/>
              <line class="cls-2" x1="133.5" y1="286.8" x2="131.6" y2="287.4"/>
            </g>
            <g>
              <path class="cls-4" d="M126.6,291c-1.9.3-4.2.5-6.1.2,0,0,1.7-1.6,5.2-3.4"/>
              <path class="cls-4" d="M110.6,291c1.9.3,4.2.5,6.1.2,0,0-1.7-1.6-5.2-3.4"/>
              <path class="cls-4" d="M120.3,284c-.3,1.9-.8,4.1-1.7,5.9,0,0-1-2.1-1.7-6"/>
            </g>
            <path class="cls-5" d="M118.6,296.4c-2.4,0-4.4-2-4.4-4.4s2-4.4,4.4-4.4,4.4,2,4.4,4.4-2,4.4-4.4,4.4Z"/>
          </g>
          <g>
            <g>
              <line class="cls-3" x1="44.6" y1="292" x2="20.2" y2="292"/>
              <line class="cls-3" x1="44.3" y1="292" x2="69.4" y2="292"/>
              <path class="cls-3" d="M53.3,284.1h7.1c-2.7-5.4-8.1-9.1-14.3-9.7v13.6h19.7c-1.9-10-10.7-17.6-21.2-17.6s-19.4,7.6-21.2,17.6h19.7v-13.6c-6.2.5-11.6,4.3-14.3,9.7h7.1"/>
              <g>
                <path class="cls-3" d="M27.3,295.8c-.3-1.2-.4-2.5-.4-3.8s.1-2.6.4-3.9"/>
                <path class="cls-3" d="M61.9,295.8c.3-1.2.4-2.5.4-3.8s-.1-2.6-.4-3.9"/>
              </g>
            </g>
            <circle class="cls-3" cx="44.6" cy="292" r="31"/>
            <path class="cls-3" d="M44.6,316.7c-13.6,0-24.7-11.1-24.7-24.7s11.1-24.7,24.7-24.7,24.7,11.1,24.7,24.7-11.1,24.7-24.7,24.7Z"/>
            <g>
              <path class="cls-3" d="M46.6,267v-1.6h0c.9,0,1.9.2,2.8.3v-2.1c-1.5-.3-3.1-.4-4.7-.4s-3.2.1-4.7.4v2.1c.9-.2,1.8-.3,2.8-.3v1.6"/>
              <path class="cls-3" d="M28.3,273l-1.1-1.1h0c.7-.6,1.4-1.2,2.2-1.7l-1.5-1.5c-2.6,1.8-4.8,4.1-6.6,6.6l1.5,1.5c.5-.8,1.1-1.5,1.7-2.2l1.1,1.1"/>
              <path class="cls-3" d="M19.7,290.1h-1.6c0-.9.2-1.9.3-2.8h-2.1c-.3,1.5-.4,3.1-.4,4.7s.1,3.2.4,4.7h2.1c-.2-.9-.3-1.8-.3-2.8h1.6"/>
              <path class="cls-3" d="M69.6,293.9h1.6c0,.9-.2,1.9-.3,2.8h2.1c.3-1.5.4-3.1.4-4.7s-.1-3.2-.4-4.7h-2.1c.2.9.3,1.8.3,2.8h-1.6"/>
              <path class="cls-3" d="M63.6,275.7l1.1-1.1h0c.6.7,1.2,1.4,1.7,2.2l1.5-1.5c-1.8-2.6-4.1-4.8-6.6-6.6l-1.5,1.5c.8.5,1.5,1.1,2.2,1.7l-1.1,1.1"/>
            </g>
          </g>
        </g>
        <g>
          <g>
            <g>
              <path class="cls-2" d="M198.6,208.2c0-1.1-.9-2.1-2.1-2.1s-.7.1-1,.3c-.4-.8-1.3-1.3-2.2-1.3s-1.7.5-2.2,1.3c-.3-.2-.6-.3-1-.3-1.1,0-2.1.9-2.1,2.1,0,2.3,2.5,8.7,5.3,8.7s5.3-6.4,5.3-8.7Z"/>
              <g>
                <path class="cls-2" d="M184.8,210.5c-1.1-.4-2.2.2-2.6,1.3-.1.3-.1.7,0,1-.9.2-1.6.8-1.9,1.7-.3.9,0,1.8.5,2.5-.3.2-.5.5-.6.9-.4,1.1.2,2.2,1.3,2.6,2.2.7,9,.4,9.9-2.3s-4.5-7-6.7-7.7Z"/>
                <path class="cls-2" d="M201.9,210.5c1.1-.4,2.2.2,2.6,1.3.1.3.1.7,0,1,.9.2,1.6.8,1.9,1.7.3.9,0,1.8-.5,2.5.3.2.5.5.6.9.4,1.1-.2,2.2-1.3,2.6-2.2.7-9,.4-9.9-2.3s4.5-7,6.7-7.7Z"/>
              </g>
              <g>
                <path class="cls-2" d="M182.8,224.3c-.7.9-.5,2.2.5,2.9.3.2.6.3,1,.4,0,.9.3,1.8,1,2.3s1.7.6,2.5.3c.1.3.4.6.7.8.9.7,2.2.5,2.9-.5,1.4-1.9,3.1-8.5.9-10.1-2.3-1.6-8,2.1-9.4,4Z"/>
                <path class="cls-2" d="M203.9,224.3c.7.9.5,2.2-.5,2.9-.3.2-.6.3-1,.4,0,.9-.3,1.8-1,2.3s-1.7.6-2.5.3c-.1.3-.4.6-.7.8-.9.7-2.2.5-2.9-.5-1.4-1.9-3.1-8.5-.9-10.1,2.3-1.6,8,2.1,9.4,4Z"/>
              </g>
            </g>
            <path class="cls-2" d="M193.4,234.8c-8.7,0-15.8-7.1-15.8-15.8s7.1-15.8,15.8-15.8,15.8,7.1,15.8,15.8-7.1,15.8-15.8,15.8Z"/>
            <line class="cls-2" x1="193.4" y1="203.2" x2="193.4" y2="205.1"/>
            <g>
              <line class="cls-2" x1="178.5" y1="213.8" x2="180.3" y2="214.4"/>
              <line class="cls-2" x1="208.2" y1="213.8" x2="206.4" y2="214.4"/>
            </g>
            <g>
              <line class="cls-2" x1="184" y1="231.5" x2="185.1" y2="229.9"/>
              <line class="cls-2" x1="202.8" y1="231.5" x2="201.6" y2="229.9"/>
            </g>
            <g>
              <path class="cls-4" d="M196.6,226.1c-.9-1.8-1.7-3.8-2.1-5.8,0,0,2,1.1,4.9,3.9"/>
              <path class="cls-4" d="M201.4,218c-1.9.3-4.2.5-6.1.2,0,0,1.7-1.6,5.2-3.4"/>
              <path class="cls-4" d="M190.1,226.1c.9-1.8,1.7-3.8,2.1-5.8,0,0-2,1.1-4.9,3.9"/>
              <path class="cls-4" d="M185.4,218c1.9.3,4.2.5,6.1.2,0,0-1.7-1.6-5.2-3.4"/>
              <path class="cls-4" d="M195.1,211c-.3,1.9-.8,4.1-1.7,5.9,0,0-1-2.1-1.7-6"/>
            </g>
            <path class="cls-5" d="M193.4,223.4c-2.4,0-4.4-2-4.4-4.4s2-4.4,4.4-4.4,4.4,2,4.4,4.4-2,4.4-4.4,4.4Z"/>
          </g>
          <g>
            <g>
              <line class="cls-3" x1="267.4" y1="219" x2="242.9" y2="219"/>
              <line class="cls-3" x1="267.1" y1="219" x2="292.2" y2="219"/>
              <path class="cls-3" d="M276,211.1h7.1c-2.7-5.4-8.1-9.1-14.3-9.7v13.6h19.7c-1.9-10-10.7-17.6-21.2-17.6s-19.4,7.6-21.2,17.6h19.7v-13.6c-6.2.5-11.6,4.3-14.3,9.7h7.1"/>
              <path class="cls-3" d="M276,226.9h7.1c-2.7,5.4-8.1,9.1-14.3,9.7v-13.6h19.7c-1.9,10-10.7,17.6-21.2,17.6s-19.4-7.6-21.2-17.6h19.7v13.6c-6.2-.5-11.6-4.3-14.3-9.7h7.1"/>
              <g>
                <path class="cls-3" d="M250.1,222.8c-.3-1.2-.4-2.5-.4-3.8s.1-2.6.4-3.9"/>
                <path class="cls-3" d="M284.7,222.8c.3-1.2.4-2.5.4-3.8s-.1-2.6-.4-3.9"/>
              </g>
            </g>
            <circle class="cls-3" cx="267.4" cy="219" r="31"/>
            <path class="cls-3" d="M267.4,243.7c-13.6,0-24.7-11.1-24.7-24.7s11.1-24.7,24.7-24.7,24.7,11.1,24.7,24.7-11.1,24.7-24.7,24.7Z"/>
            <g>
              <path class="cls-3" d="M269.3,194v-1.6h0c.9,0,1.9.2,2.8.3v-2.1c-1.5-.3-3.1-.4-4.7-.4s-3.2.1-4.7.4v2.1c.9-.2,1.8-.3,2.8-.3v1.6"/>
              <path class="cls-3" d="M265.5,243.9v1.6h0c-.9,0-1.9-.2-2.8-.3v2.1c1.5.3,3.1.4,4.7.4s3.2-.1,4.7-.4v-2.1c-.9.2-1.8.3-2.8.3v-1.6"/>
              <path class="cls-3" d="M251.1,200l-1.1-1.1h0c.7-.6,1.4-1.2,2.2-1.7l-1.5-1.5c-2.6,1.8-4.8,4.1-6.6,6.6l1.5,1.5c.5-.8,1.1-1.5,1.7-2.2l1.1,1.1"/>
              <path class="cls-3" d="M283.7,238l1.1,1.1h0c-.7.6-1.4,1.2-2.2,1.7l1.5,1.5c2.6-1.8,4.8-4.1,6.6-6.6l-1.5-1.5c-.5.8-1.1,1.5-1.7,2.2l-1.1-1.1"/>
              <path class="cls-3" d="M242.4,217.1h-1.6c0-.9.2-1.9.3-2.8h-2.1c-.3,1.5-.4,3.1-.4,4.7s.1,3.2.4,4.7h2.1c-.2-.9-.3-1.8-.3-2.8h1.6"/>
              <path class="cls-3" d="M292.4,220.9h1.6c0,.9-.2,1.9-.3,2.8h2.1c.3-1.5.4-3.1.4-4.7s-.1-3.2-.4-4.7h-2.1c.2.9.3,1.8.3,2.8h-1.6"/>
              <path class="cls-3" d="M248.4,235.3l-1.1,1.1h0c-.6-.7-1.2-1.4-1.7-2.2l-1.5,1.5c1.8,2.6,4.1,4.8,6.6,6.6l1.5-1.5c-.8-.5-1.5-1.1-2.2-1.7l1.1-1.1"/>
              <path class="cls-3" d="M286.4,202.7l1.1-1.1h0c.6.7,1.2,1.4,1.7,2.2l1.5-1.5c-1.8-2.6-4.1-4.8-6.6-6.6l-1.5,1.5c.8.5,1.5,1.1,2.2,1.7l-1.1,1.1"/>
            </g>
          </g>
          <g>
            <circle class="cls-3" cx="119.4" cy="219" r="31"/>
            <path class="cls-3" d="M119.4,243.7c-13.6,0-24.7-11.1-24.7-24.7s11.1-24.7,24.7-24.7,24.7,11.1,24.7,24.7-11.1,24.7-24.7,24.7Z"/>
            <path class="cls-3" d="M119.4,240.8c-12,0-21.8-9.8-21.8-21.8s9.8-21.8,21.8-21.8,21.8,9.8,21.8,21.8-9.8,21.8-21.8,21.8Z"/>
            <g>
              <line class="cls-3" x1="119.4" y1="197.2" x2="119.4" y2="240.8"/>
              <line class="cls-3" x1="141.2" y1="219" x2="97.5" y2="219"/>
            </g>
            <g>
              <g>
                <path class="cls-3" d="M122.1,214.4v-14.7l2.3,1.4c2.5,1.5,4,4.2,4,7.1v1.9h-2.5c-.7,0-1.3-.6-1.3-1.3v-2.7"/>
                <path class="cls-3" d="M132.4,214h-2.7c-.7,0-1.3-.6-1.3-1.3v-2.5h1.9c2.8,0,5.4,1.4,6.9,3.8l1.5,2.5h-14.4"/>
              </g>
              <g>
                <path class="cls-3" d="M122.1,223.6v14.7l2.3-1.4c2.5-1.5,4-4.2,4-7.1v-1.9h-2.5c-.7,0-1.3.6-1.3,1.3v2.7"/>
                <path class="cls-3" d="M132.4,224h-2.7c-.7,0-1.3.6-1.3,1.3v2.5h1.7c2.9,0,5.6-1.5,7.1-4l1.4-2.3h-14.4"/>
              </g>
              <g>
                <path class="cls-3" d="M116.7,214.4v-14.7l-2.3,1.4c-2.5,1.5-4,4.2-4,7.1v1.9h2.5c.7,0,1.3-.6,1.3-1.3v-2.7"/>
                <path class="cls-3" d="M106.4,214h2.7c.7,0,1.3-.6,1.3-1.3v-2.5h-1.9c-2.8,0-5.4,1.4-6.9,3.8l-1.5,2.5h14.4"/>
              </g>
              <g>
                <path class="cls-3" d="M116.7,223.6v14.7l-2.3-1.4c-2.5-1.5-4-4.2-4-7.1v-1.9h2.5c.7,0,1.3.6,1.3,1.3v2.7"/>
                <path class="cls-3" d="M106.4,224h2.7c.7,0,1.3.6,1.3,1.3v2.5h-1.7c-2.9,0-5.6-1.5-7.1-4l-1.4-2.3h14.4"/>
              </g>
            </g>
            <g>
              <g>
                <path class="cls-3" d="M91.4,225.2c-.4-2-.7-4.1-.7-6.2s.2-4.2.7-6.3"/>
                <path class="cls-3" d="M147.4,225.2c.4-2,.7-4.1.7-6.2s-.2-4.2-.7-6.3"/>
                <path class="cls-3" d="M125.6,247c-2,.4-4.1.7-6.2.7s-4.2-.2-6.3-.7"/>
                <path class="cls-3" d="M125.6,191c-2-.4-4.1-.7-6.2-.7-2.1,0-4.2.2-6.3.7"/>
                <path class="cls-3" d="M104,243.2c-1.7-1.1-3.4-2.4-4.9-3.9-1.5-1.5-2.8-3.2-3.9-4.9"/>
                <path class="cls-3" d="M143.6,203.6c-1.1-1.7-2.4-3.4-3.9-4.9-1.5-1.5-3.2-2.8-4.9-3.9"/>
                <path class="cls-3" d="M143.6,234.4c-1.1,1.7-2.4,3.4-3.9,4.9-1.5,1.5-3.2,2.8-4.9,3.9"/>
                <path class="cls-3" d="M104,194.8c-1.7,1.1-3.4,2.4-4.9,3.9-1.5,1.5-2.8,3.2-3.9,4.9"/>
              </g>
              <g>
                <line class="cls-3" x1="119.4" y1="190.3" x2="119.4" y2="194.4"/>
                <line class="cls-3" x1="119.4" y1="247.7" x2="119.4" y2="243.7"/>
                <line class="cls-3" x1="90.7" y1="219" x2="94.8" y2="219"/>
                <line class="cls-3" x1="148.1" y1="219" x2="144.1" y2="219"/>
                <line class="cls-3" x1="99.1" y1="198.7" x2="102" y2="201.6"/>
                <line class="cls-3" x1="139.7" y1="239.3" x2="136.9" y2="236.4"/>
                <line class="cls-3" x1="99.1" y1="239.3" x2="102" y2="236.4"/>
                <line class="cls-3" x1="139.7" y1="198.7" x2="136.9" y2="201.6"/>
              </g>
            </g>
          </g>
        </g>
        <g>
          <g>
            <g>
              <path class="cls-2" d="M49.6,208.2c0-1.1-.9-2.1-2.1-2.1s-.7.1-1,.3c-.4-.8-1.3-1.3-2.2-1.3s-1.7.5-2.2,1.3c-.3-.2-.6-.3-1-.3-1.1,0-2.1.9-2.1,2.1,0,2.3,2.5,8.7,5.3,8.7s5.3-6.4,5.3-8.7Z"/>
              <g>
                <path class="cls-2" d="M35.8,210.5c-1.1-.4-2.2.2-2.6,1.3-.1.3-.1.7,0,1-.9.2-1.6.8-1.9,1.7-.3.9,0,1.8.5,2.5-.3.2-.5.5-.6.9-.4,1.1.2,2.2,1.3,2.6,2.2.7,9,.4,9.9-2.3s-4.5-7-6.7-7.7Z"/>
                <path class="cls-2" d="M52.9,210.5c1.1-.4,2.2.2,2.6,1.3.1.3.1.7,0,1,.9.2,1.6.8,1.9,1.7.3.9,0,1.8-.5,2.5.3.2.5.5.6.9.4,1.1-.2,2.2-1.3,2.6-2.2.7-9,.4-9.9-2.3s4.5-7,6.7-7.7Z"/>
              </g>
              <g>
                <path class="cls-2" d="M33.8,224.3c-.7.9-.5,2.2.5,2.9.3.2.6.3,1,.4,0,.9.3,1.8,1,2.3s1.7.6,2.5.3c.1.3.4.6.7.8.9.7,2.2.5,2.9-.5,1.4-1.9,3.1-8.5.9-10.1-2.3-1.6-8,2.1-9.4,4Z"/>
                <path class="cls-2" d="M54.9,224.3c.7.9.5,2.2-.5,2.9-.3.2-.6.3-1,.4,0,.9-.3,1.8-1,2.3s-1.7.6-2.5.3c-.1.3-.4.6-.7.8-.9.7-2.2.5-2.9-.5-1.4-1.9-3.1-8.5-.9-10.1,2.3-1.6,8,2.1,9.4,4Z"/>
              </g>
            </g>
            <path class="cls-2" d="M44.4,234.8c-8.7,0-15.8-7.1-15.8-15.8s7.1-15.8,15.8-15.8,15.8,7.1,15.8,15.8-7.1,15.8-15.8,15.8Z"/>
            <line class="cls-2" x1="44.4" y1="203.2" x2="44.4" y2="205.1"/>
            <g>
              <line class="cls-2" x1="29.5" y1="213.8" x2="31.3" y2="214.4"/>
              <line class="cls-2" x1="59.2" y1="213.8" x2="57.4" y2="214.4"/>
            </g>
            <g>
              <line class="cls-2" x1="35" y1="231.5" x2="36.1" y2="229.9"/>
              <line class="cls-2" x1="53.8" y1="231.5" x2="52.6" y2="229.9"/>
            </g>
            <g>
              <path class="cls-4" d="M47.6,226.1c-.9-1.8-1.7-3.8-2.1-5.8,0,0,2,1.1,4.9,3.9"/>
              <path class="cls-4" d="M52.4,218c-1.9.3-4.2.5-6.1.2,0,0,1.7-1.6,5.2-3.4"/>
              <path class="cls-4" d="M41.1,226.1c.9-1.8,1.7-3.8,2.1-5.8,0,0-2,1.1-4.9,3.9"/>
              <path class="cls-4" d="M36.4,218c1.9.3,4.2.5,6.1.2,0,0-1.7-1.6-5.2-3.4"/>
              <path class="cls-4" d="M46.1,211c-.3,1.9-.8,4.1-1.7,5.9,0,0-1-2.1-1.7-6"/>
            </g>
            <path class="cls-5" d="M44.4,223.4c-2.4,0-4.4-2-4.4-4.4s2-4.4,4.4-4.4,4.4,2,4.4,4.4-2,4.4-4.4,4.4Z"/>
          </g>
          <circle class="cls-3" cx="-29.6" cy="219" r="31"/>
        </g>
        <g>
          <g>
            <g>
              <path class="cls-2" d="M124.4,135.2c0-1.1-.9-2.1-2.1-2.1s-.7.1-1,.3c-.4-.8-1.3-1.3-2.2-1.3s-1.7.5-2.2,1.3c-.3-.2-.6-.3-1-.3-1.1,0-2.1.9-2.1,2.1,0,2.3,2.5,8.7,5.3,8.7s5.3-6.4,5.3-8.7Z"/>
              <g>
                <path class="cls-2" d="M110.6,137.5c-1.1-.4-2.2.2-2.6,1.3-.1.3-.1.7,0,1-.9.2-1.6.8-1.9,1.7-.3.9,0,1.8.5,2.5-.3.2-.5.5-.6.9-.4,1.1.2,2.2,1.3,2.6,2.2.7,9,.4,9.9-2.3s-4.5-7-6.7-7.7Z"/>
                <path class="cls-2" d="M127.7,137.5c1.1-.4,2.2.2,2.6,1.3.1.3.1.7,0,1,.9.2,1.6.8,1.9,1.7.3.9,0,1.8-.5,2.5.3.2.5.5.6.9.4,1.1-.2,2.2-1.3,2.6-2.2.7-9,.4-9.9-2.3s4.5-7,6.7-7.7Z"/>
              </g>
              <g>
                <path class="cls-2" d="M108.5,151.3c-.7.9-.5,2.2.5,2.9.3.2.6.3,1,.4,0,.9.3,1.8,1,2.3s1.7.6,2.5.3c.1.3.4.6.7.8.9.7,2.2.5,2.9-.5,1.4-1.9,3.1-8.5.9-10.1-2.3-1.6-8,2.1-9.4,4Z"/>
                <path class="cls-2" d="M129.7,151.3c.7.9.5,2.2-.5,2.9-.3.2-.6.3-1,.4,0,.9-.3,1.8-1,2.3s-1.7.6-2.5.3c-.1.3-.4.6-.7.8-.9.7-2.2.5-2.9-.5-1.4-1.9-3.1-8.5-.9-10.1,2.3-1.6,8,2.1,9.4,4Z"/>
              </g>
            </g>
            <path class="cls-2" d="M119.1,161.8c-8.7,0-15.8-7.1-15.8-15.8s7.1-15.8,15.8-15.8,15.8,7.1,15.8,15.8-7.1,15.8-15.8,15.8Z"/>
            <line class="cls-2" x1="119.1" y1="130.2" x2="119.1" y2="132.1"/>
            <g>
              <line class="cls-2" x1="104.2" y1="140.8" x2="106.1" y2="141.4"/>
              <line class="cls-2" x1="134" y1="140.8" x2="132.1" y2="141.4"/>
            </g>
            <g>
              <line class="cls-2" x1="109.7" y1="158.5" x2="110.9" y2="156.9"/>
              <line class="cls-2" x1="128.5" y1="158.5" x2="127.4" y2="156.9"/>
            </g>
            <g>
              <path class="cls-4" d="M122.4,153.1c-.9-1.8-1.7-3.8-2.1-5.8,0,0,2,1.1,4.9,3.9"/>
              <path class="cls-4" d="M127.1,145c-1.9.3-4.2.5-6.1.2,0,0,1.7-1.6,5.2-3.4"/>
              <path class="cls-4" d="M115.9,153.1c.9-1.8,1.7-3.8,2.1-5.8,0,0-2,1.1-4.9,3.9"/>
              <path class="cls-4" d="M111.1,145c1.9.3,4.2.5,6.1.2,0,0-1.7-1.6-5.2-3.4"/>
              <path class="cls-4" d="M120.8,138c-.3,1.9-.8,4.1-1.7,5.9,0,0-1-2.1-1.7-6"/>
            </g>
            <path class="cls-5" d="M119.1,150.4c-2.4,0-4.4-2-4.4-4.4s2-4.4,4.4-4.4,4.4,2,4.4,4.4-2,4.4-4.4,4.4Z"/>
          </g>
          <g>
            <g>
              <path class="cls-2" d="M272.4,135.2c0-1.1-.9-2.1-2.1-2.1s-.7.1-1,.3c-.4-.8-1.3-1.3-2.2-1.3s-1.7.5-2.2,1.3c-.3-.2-.6-.3-1-.3-1.1,0-2.1.9-2.1,2.1,0,2.3,2.5,8.7,5.3,8.7s5.3-6.4,5.3-8.7Z"/>
              <g>
                <path class="cls-2" d="M258.6,137.5c-1.1-.4-2.2.2-2.6,1.3-.1.3-.1.7,0,1-.9.2-1.6.8-1.9,1.7-.3.9,0,1.8.5,2.5-.3.2-.5.5-.6.9-.4,1.1.2,2.2,1.3,2.6,2.2.7,9,.4,9.9-2.3s-4.5-7-6.7-7.7Z"/>
                <path class="cls-2" d="M275.7,137.5c1.1-.4,2.2.2,2.6,1.3.1.3.1.7,0,1,.9.2,1.6.8,1.9,1.7.3.9,0,1.8-.5,2.5.3.2.5.5.6.9.4,1.1-.2,2.2-1.3,2.6-2.2.7-9,.4-9.9-2.3s4.5-7,6.7-7.7Z"/>
              </g>
              <g>
                <path class="cls-2" d="M256.5,151.3c-.7.9-.5,2.2.5,2.9.3.2.6.3,1,.4,0,.9.3,1.8,1,2.3s1.7.6,2.5.3c.1.3.4.6.7.8.9.7,2.2.5,2.9-.5,1.4-1.9,3.1-8.5.9-10.1-2.3-1.6-8,2.1-9.4,4Z"/>
                <path class="cls-2" d="M277.7,151.3c.7.9.5,2.2-.5,2.9-.3.2-.6.3-1,.4,0,.9-.3,1.8-1,2.3s-1.7.6-2.5.3c-.1.3-.4.6-.7.8-.9.7-2.2.5-2.9-.5-1.4-1.9-3.1-8.5-.9-10.1,2.3-1.6,8,2.1,9.4,4Z"/>
              </g>
            </g>
            <path class="cls-2" d="M267.1,161.8c-8.7,0-15.8-7.1-15.8-15.8s7.1-15.8,15.8-15.8,15.8,7.1,15.8,15.8-7.1,15.8-15.8,15.8Z"/>
            <line class="cls-2" x1="267.1" y1="130.2" x2="267.1" y2="132.1"/>
            <g>
              <line class="cls-2" x1="252.2" y1="140.8" x2="254.1" y2="141.4"/>
              <line class="cls-2" x1="282" y1="140.8" x2="280.1" y2="141.4"/>
            </g>
            <g>
              <line class="cls-2" x1="257.7" y1="158.5" x2="258.9" y2="156.9"/>
              <line class="cls-2" x1="276.5" y1="158.5" x2="275.4" y2="156.9"/>
            </g>
            <g>
              <path class="cls-4" d="M270.4,153.1c-.9-1.8-1.7-3.8-2.1-5.8,0,0,2,1.1,4.9,3.9"/>
              <path class="cls-4" d="M275.1,145c-1.9.3-4.2.5-6.1.2,0,0,1.7-1.6,5.2-3.4"/>
              <path class="cls-4" d="M263.9,153.1c.9-1.8,1.7-3.8,2.1-5.8,0,0-2,1.1-4.9,3.9"/>
              <path class="cls-4" d="M259.1,145c1.9.3,4.2.5,6.1.2,0,0-1.7-1.6-5.2-3.4"/>
              <path class="cls-4" d="M268.8,138c-.3,1.9-.8,4.1-1.7,5.9,0,0-1-2.1-1.7-6"/>
            </g>
            <path class="cls-5" d="M267.1,150.4c-2.4,0-4.4-2-4.4-4.4s2-4.4,4.4-4.4,4.4,2,4.4,4.4-2,4.4-4.4,4.4Z"/>
          </g>
          <g>
            <g>
              <line class="cls-3" x1="193.1" y1="146" x2="168.7" y2="146"/>
              <line class="cls-3" x1="192.8" y1="146" x2="217.9" y2="146"/>
              <path class="cls-3" d="M201.8,138.1h7.1c-2.7-5.4-8.1-9.1-14.3-9.7v13.6h19.7c-1.9-10-10.7-17.6-21.2-17.6s-19.4,7.6-21.2,17.6h19.7v-13.6c-6.2.5-11.6,4.3-14.3,9.7h7.1"/>
              <path class="cls-3" d="M201.8,153.9h7.1c-2.7,5.4-8.1,9.1-14.3,9.7v-13.6h19.7c-1.9,10-10.7,17.6-21.2,17.6s-19.4-7.6-21.2-17.6h19.7v13.6c-6.2-.5-11.6-4.3-14.3-9.7h7.1"/>
              <g>
                <path class="cls-3" d="M175.8,149.8c-.3-1.2-.4-2.5-.4-3.8s.1-2.6.4-3.9"/>
                <path class="cls-3" d="M210.4,149.8c.3-1.2.4-2.5.4-3.8s-.1-2.6-.4-3.9"/>
              </g>
            </g>
            <circle class="cls-3" cx="193.1" cy="146" r="31"/>
            <path class="cls-3" d="M193.1,170.7c-13.6,0-24.7-11.1-24.7-24.7s11.1-24.7,24.7-24.7,24.7,11.1,24.7,24.7-11.1,24.7-24.7,24.7Z"/>
            <g>
              <path class="cls-3" d="M195.1,121v-1.6h0c.9,0,1.9.2,2.8.3v-2.1c-1.5-.3-3.1-.4-4.7-.4s-3.2.1-4.7.4v2.1c.9-.2,1.8-.3,2.8-.3v1.6"/>
              <path class="cls-3" d="M191.2,170.9v1.6h0c-.9,0-1.9-.2-2.8-.3v2.1c1.5.3,3.1.4,4.7.4s3.2-.1,4.7-.4v-2.1c-.9.2-1.8.3-2.8.3v-1.6"/>
              <path class="cls-3" d="M176.8,127l-1.1-1.1h0c.7-.6,1.4-1.2,2.2-1.7l-1.5-1.5c-2.6,1.8-4.8,4.1-6.6,6.6l1.5,1.5c.5-.8,1.1-1.5,1.7-2.2l1.1,1.1"/>
              <path class="cls-3" d="M209.4,165l1.1,1.1h0c-.7.6-1.4,1.2-2.2,1.7l1.5,1.5c2.6-1.8,4.8-4.1,6.6-6.6l-1.5-1.5c-.5.8-1.1,1.5-1.7,2.2l-1.1-1.1"/>
              <path class="cls-3" d="M168.2,144.1h-1.6c0-.9.2-1.9.3-2.8h-2.1c-.3,1.5-.4,3.1-.4,4.7s.1,3.2.4,4.7h2.1c-.2-.9-.3-1.8-.3-2.8h1.6"/>
              <path class="cls-3" d="M218.1,147.9h1.6c0,.9-.2,1.9-.3,2.8h2.1c.3-1.5.4-3.1.4-4.7s-.1-3.2-.4-4.7h-2.1c.2.9.3,1.8.3,2.8h-1.6"/>
              <path class="cls-3" d="M174.1,162.3l-1.1,1.1h0c-.6-.7-1.2-1.4-1.7-2.2l-1.5,1.5c1.8,2.6,4.1,4.8,6.6,6.6l1.5-1.5c-.8-.5-1.5-1.1-2.2-1.7l1.1-1.1"/>
              <path class="cls-3" d="M212.1,129.7l1.1-1.1h0c.6.7,1.2,1.4,1.7,2.2l1.5-1.5c-1.8-2.6-4.1-4.8-6.6-6.6l-1.5,1.5c.8.5,1.5,1.1,2.2,1.7l-1.1,1.1"/>
            </g>
          </g>
          <g>
            <circle class="cls-3" cx="45.1" cy="146" r="31"/>
            <path class="cls-3" d="M45.1,170.7c-13.6,0-24.7-11.1-24.7-24.7s11.1-24.7,24.7-24.7,24.7,11.1,24.7,24.7-11.1,24.7-24.7,24.7Z"/>
            <path class="cls-3" d="M45.1,167.8c-12,0-21.8-9.8-21.8-21.8s9.8-21.8,21.8-21.8,21.8,9.8,21.8,21.8-9.8,21.8-21.8,21.8Z"/>
            <g>
              <line class="cls-3" x1="45.1" y1="124.2" x2="45.1" y2="167.8"/>
              <line class="cls-3" x1="67" y1="146" x2="23.3" y2="146"/>
            </g>
            <g>
              <g>
                <path class="cls-3" d="M47.8,141.4v-14.7l2.3,1.4c2.5,1.5,4,4.2,4,7.1v1.9h-2.5c-.7,0-1.3-.6-1.3-1.3v-2.7"/>
                <path class="cls-3" d="M58.2,141h-2.7c-.7,0-1.3-.6-1.3-1.3v-2.5h1.9c2.8,0,5.4,1.4,6.9,3.8l1.5,2.5h-14.4"/>
              </g>
              <g>
                <path class="cls-3" d="M47.8,150.6v14.7l2.3-1.4c2.5-1.5,4-4.2,4-7.1v-1.9h-2.5c-.7,0-1.3.6-1.3,1.3v2.7"/>
                <path class="cls-3" d="M58.2,151h-2.7c-.7,0-1.3.6-1.3,1.3v2.5h1.7c2.9,0,5.6-1.5,7.1-4l1.4-2.3h-14.4"/>
              </g>
              <g>
                <path class="cls-3" d="M42.4,141.4v-14.7l-2.3,1.4c-2.5,1.5-4,4.2-4,7.1v1.9h2.5c.7,0,1.3-.6,1.3-1.3v-2.7"/>
                <path class="cls-3" d="M32.1,141h2.7c.7,0,1.3-.6,1.3-1.3v-2.5h-1.9c-2.8,0-5.4,1.4-6.9,3.8l-1.5,2.5h14.4"/>
              </g>
              <g>
                <path class="cls-3" d="M42.4,150.6v14.7l-2.3-1.4c-2.5-1.5-4-4.2-4-7.1v-1.9h2.5c.7,0,1.3.6,1.3,1.3v2.7"/>
                <path class="cls-3" d="M32.1,151h2.7c.7,0,1.3.6,1.3,1.3v2.5h-1.7c-2.9,0-5.6-1.5-7.1-4l-1.4-2.3h14.4"/>
              </g>
            </g>
            <g>
              <g>
                <path class="cls-3" d="M17.1,152.2c-.4-2-.7-4.1-.7-6.2s.2-4.2.7-6.3"/>
                <path class="cls-3" d="M73.1,152.2c.4-2,.7-4.1.7-6.2s-.2-4.2-.7-6.3"/>
                <path class="cls-3" d="M51.3,174c-2,.4-4.1.7-6.2.7s-4.2-.2-6.3-.7"/>
                <path class="cls-3" d="M51.3,118c-2-.4-4.1-.7-6.2-.7-2.1,0-4.2.2-6.3.7"/>
                <path class="cls-3" d="M29.7,170.2c-1.7-1.1-3.4-2.4-4.9-3.9-1.5-1.5-2.8-3.2-3.9-4.9"/>
                <path class="cls-3" d="M69.3,130.6c-1.1-1.7-2.4-3.4-3.9-4.9-1.5-1.5-3.2-2.8-4.9-3.9"/>
                <path class="cls-3" d="M69.3,161.4c-1.1,1.7-2.4,3.4-3.9,4.9-1.5,1.5-3.2,2.8-4.9,3.9"/>
                <path class="cls-3" d="M29.7,121.8c-1.7,1.1-3.4,2.4-4.9,3.9-1.5,1.5-2.8,3.2-3.9,4.9"/>
              </g>
              <g>
                <line class="cls-3" x1="45.2" y1="117.3" x2="45.2" y2="121.4"/>
                <line class="cls-3" x1="45.2" y1="174.7" x2="45.2" y2="170.7"/>
                <line class="cls-3" x1="16.5" y1="146" x2="20.5" y2="146"/>
                <line class="cls-3" x1="73.8" y1="146" x2="69.8" y2="146"/>
                <line class="cls-3" x1="24.9" y1="125.7" x2="27.7" y2="128.6"/>
                <line class="cls-3" x1="65.4" y1="166.3" x2="62.6" y2="163.4"/>
                <line class="cls-3" x1="24.9" y1="166.3" x2="27.7" y2="163.4"/>
                <line class="cls-3" x1="65.4" y1="125.7" x2="62.6" y2="128.6"/>
              </g>
            </g>
          </g>
        </g>
        <g>
          <circle class="cls-3" cx="267.9" cy="73" r="31"/>
          <path class="cls-3" d="M267.9,97.7c-13.6,0-24.7-11.1-24.7-24.7s11.1-24.7,24.7-24.7,24.7,11.1,24.7,24.7-11.1,24.7-24.7,24.7Z"/>
          <path class="cls-3" d="M267.9,94.8c-12,0-21.8-9.8-21.8-21.8s9.8-21.8,21.8-21.8,21.8,9.8,21.8,21.8-9.8,21.8-21.8,21.8Z"/>
          <g>
            <line class="cls-3" x1="267.9" y1="51.2" x2="267.9" y2="94.8"/>
            <line class="cls-3" x1="289.7" y1="73" x2="246" y2="73"/>
          </g>
          <g>
            <g>
              <path class="cls-3" d="M270.6,68.4v-14.7l2.3,1.4c2.5,1.5,4,4.2,4,7.1v1.9h-2.5c-.7,0-1.3-.6-1.3-1.3v-2.7"/>
              <path class="cls-3" d="M280.9,68h-2.7c-.7,0-1.3-.6-1.3-1.3v-2.5h1.9c2.8,0,5.4,1.4,6.9,3.8l1.5,2.5h-14.4"/>
            </g>
            <g>
              <path class="cls-3" d="M270.6,77.6v14.7l2.3-1.4c2.5-1.5,4-4.2,4-7.1v-1.9h-2.5c-.7,0-1.3.6-1.3,1.3v2.7"/>
              <path class="cls-3" d="M280.9,78h-2.7c-.7,0-1.3.6-1.3,1.3v2.5h1.7c2.9,0,5.6-1.5,7.1-4l1.4-2.3h-14.4"/>
            </g>
            <g>
              <path class="cls-3" d="M265.2,68.4v-14.7l-2.3,1.4c-2.5,1.5-4,4.2-4,7.1v1.9h2.5c.7,0,1.3-.6,1.3-1.3v-2.7"/>
              <path class="cls-3" d="M254.9,68h2.7c.7,0,1.3-.6,1.3-1.3v-2.5h-1.9c-2.8,0-5.4,1.4-6.9,3.8l-1.5,2.5h14.4"/>
            </g>
            <g>
              <path class="cls-3" d="M265.2,77.6v14.7l-2.3-1.4c-2.5-1.5-4-4.2-4-7.1v-1.9h2.5c.7,0,1.3.6,1.3,1.3v2.7"/>
              <path class="cls-3" d="M254.9,78h2.7c.7,0,1.3.6,1.3,1.3v2.5h-1.7c-2.9,0-5.6-1.5-7.1-4l-1.4-2.3h14.4"/>
            </g>
          </g>
          <g>
            <g>
              <path class="cls-3" d="M239.9,79.2c-.4-2-.7-4.1-.7-6.2s.2-4.2.7-6.3"/>
              <path class="cls-3" d="M295.9,79.2c.4-2,.7-4.1.7-6.2s-.2-4.2-.7-6.3"/>
              <path class="cls-3" d="M274.1,101c-2,.4-4.1.7-6.2.7s-4.2-.2-6.3-.7"/>
              <path class="cls-3" d="M274.1,45c-2-.4-4.1-.7-6.2-.7-2.1,0-4.2.2-6.3.7"/>
              <path class="cls-3" d="M252.5,97.2c-1.7-1.1-3.4-2.4-4.9-3.9-1.5-1.5-2.8-3.2-3.9-4.9"/>
              <path class="cls-3" d="M292.1,57.6c-1.1-1.7-2.4-3.4-3.9-4.9-1.5-1.5-3.2-2.8-4.9-3.9"/>
              <path class="cls-3" d="M292.1,88.4c-1.1,1.7-2.4,3.4-3.9,4.9-1.5,1.5-3.2,2.8-4.9,3.9"/>
              <path class="cls-3" d="M252.5,48.8c-1.7,1.1-3.4,2.4-4.9,3.9-1.5,1.5-2.8,3.2-3.9,4.9"/>
            </g>
            <g>
              <line class="cls-3" x1="267.9" y1="44.3" x2="267.9" y2="48.4"/>
              <line class="cls-3" x1="267.9" y1="101.7" x2="267.9" y2="97.7"/>
              <line class="cls-3" x1="239.2" y1="73" x2="243.3" y2="73"/>
              <line class="cls-3" x1="296.6" y1="73" x2="292.6" y2="73"/>
              <line class="cls-3" x1="247.6" y1="52.7" x2="250.5" y2="55.6"/>
              <line class="cls-3" x1="288.2" y1="93.3" x2="285.4" y2="90.4"/>
              <line class="cls-3" x1="247.6" y1="93.3" x2="250.5" y2="90.4"/>
              <line class="cls-3" x1="288.2" y1="52.7" x2="285.4" y2="55.6"/>
            </g>
          </g>
        </g>
        <g>
          <g>
            <g>
              <path class="cls-2" d="M50.1,62.2c0-1.1-.9-2.1-2.1-2.1s-.7.1-1,.3c-.4-.8-1.3-1.3-2.2-1.3s-1.7.5-2.2,1.3c-.3-.2-.6-.3-1-.3-1.1,0-2.1.9-2.1,2.1,0,2.3,2.5,8.7,5.3,8.7s5.3-6.4,5.3-8.7Z"/>
              <g>
                <path class="cls-2" d="M36.3,64.5c-1.1-.4-2.2.2-2.6,1.3-.1.3-.1.7,0,1-.9.2-1.6.8-1.9,1.7-.3.9,0,1.8.5,2.5-.3.2-.5.5-.6.9-.4,1.1.2,2.2,1.3,2.6,2.2.7,9,.4,9.9-2.3s-4.5-7-6.7-7.7Z"/>
                <path class="cls-2" d="M53.4,64.5c1.1-.4,2.2.2,2.6,1.3.1.3.1.7,0,1,.9.2,1.6.8,1.9,1.7.3.9,0,1.8-.5,2.5.3.2.5.5.6.9.4,1.1-.2,2.2-1.3,2.6-2.2.7-9,.4-9.9-2.3s4.5-7,6.7-7.7Z"/>
              </g>
              <g>
                <path class="cls-2" d="M34.3,78.3c-.7.9-.5,2.2.5,2.9.3.2.6.3,1,.4,0,.9.3,1.8,1,2.3s1.7.6,2.5.3c.1.3.4.6.7.8.9.7,2.2.5,2.9-.5,1.4-1.9,3.1-8.5.9-10.1-2.3-1.6-8,2.1-9.4,4Z"/>
                <path class="cls-2" d="M55.4,78.3c.7.9.5,2.2-.5,2.9-.3.2-.6.3-1,.4,0,.9-.3,1.8-1,2.3s-1.7.6-2.5.3c-.1.3-.4.6-.7.8-.9.7-2.2.5-2.9-.5-1.4-1.9-3.1-8.5-.9-10.1,2.3-1.6,8,2.1,9.4,4Z"/>
              </g>
            </g>
            <path class="cls-2" d="M44.9,88.8c-8.7,0-15.8-7.1-15.8-15.8s7.1-15.8,15.8-15.8,15.8,7.1,15.8,15.8-7.1,15.8-15.8,15.8Z"/>
            <line class="cls-2" x1="44.9" y1="57.2" x2="44.9" y2="59.1"/>
            <g>
              <line class="cls-2" x1="30" y1="67.8" x2="31.8" y2="68.4"/>
              <line class="cls-2" x1="59.7" y1="67.8" x2="57.9" y2="68.4"/>
            </g>
            <g>
              <line class="cls-2" x1="35.5" y1="85.5" x2="36.6" y2="83.9"/>
              <line class="cls-2" x1="54.3" y1="85.5" x2="53.1" y2="83.9"/>
            </g>
            <g>
              <path class="cls-4" d="M48.1,80.1c-.9-1.8-1.7-3.8-2.1-5.8,0,0,2,1.1,4.9,3.9"/>
              <path class="cls-4" d="M52.9,72c-1.9.3-4.2.5-6.1.2,0,0,1.7-1.6,5.2-3.4"/>
              <path class="cls-4" d="M41.6,80.1c.9-1.8,1.7-3.8,2.1-5.8,0,0-2,1.1-4.9,3.9"/>
              <path class="cls-4" d="M36.9,72c1.9.3,4.2.5,6.1.2,0,0-1.7-1.6-5.2-3.4"/>
              <path class="cls-4" d="M46.6,65c-.3,1.9-.8,4.1-1.7,5.9,0,0-1-2.1-1.7-6"/>
            </g>
            <path class="cls-5" d="M44.9,77.4c-2.4,0-4.4-2-4.4-4.4s2-4.4,4.4-4.4,4.4,2,4.4,4.4-2,4.4-4.4,4.4Z"/>
          </g>
          <g>
            <g>
              <path class="cls-2" d="M198.1,62.2c0-1.1-.9-2.1-2.1-2.1s-.7.1-1,.3c-.4-.8-1.3-1.3-2.2-1.3s-1.7.5-2.2,1.3c-.3-.2-.6-.3-1-.3-1.1,0-2.1.9-2.1,2.1,0,2.3,2.5,8.7,5.3,8.7s5.3-6.4,5.3-8.7Z"/>
              <g>
                <path class="cls-2" d="M184.3,64.5c-1.1-.4-2.2.2-2.6,1.3-.1.3-.1.7,0,1-.9.2-1.6.8-1.9,1.7-.3.9,0,1.8.5,2.5-.3.2-.5.5-.6.9-.4,1.1.2,2.2,1.3,2.6,2.2.7,9,.4,9.9-2.3s-4.5-7-6.7-7.7Z"/>
                <path class="cls-2" d="M201.4,64.5c1.1-.4,2.2.2,2.6,1.3.1.3.1.7,0,1,.9.2,1.6.8,1.9,1.7.3.9,0,1.8-.5,2.5.3.2.5.5.6.9.4,1.1-.2,2.2-1.3,2.6-2.2.7-9,.4-9.9-2.3s4.5-7,6.7-7.7Z"/>
              </g>
              <g>
                <path class="cls-2" d="M182.3,78.3c-.7.9-.5,2.2.5,2.9.3.2.6.3,1,.4,0,.9.3,1.8,1,2.3s1.7.6,2.5.3c.1.3.4.6.7.8.9.7,2.2.5,2.9-.5,1.4-1.9,3.1-8.5.9-10.1-2.3-1.6-8,2.1-9.4,4Z"/>
                <path class="cls-2" d="M203.4,78.3c.7.9.5,2.2-.5,2.9-.3.2-.6.3-1,.4,0,.9-.3,1.8-1,2.3s-1.7.6-2.5.3c-.1.3-.4.6-.7.8-.9.7-2.2.5-2.9-.5-1.4-1.9-3.1-8.5-.9-10.1,2.3-1.6,8,2.1,9.4,4Z"/>
              </g>
            </g>
            <path class="cls-2" d="M192.9,88.8c-8.7,0-15.8-7.1-15.8-15.8s7.1-15.8,15.8-15.8,15.8,7.1,15.8,15.8-7.1,15.8-15.8,15.8Z"/>
            <line class="cls-2" x1="192.9" y1="57.2" x2="192.9" y2="59.1"/>
            <g>
              <line class="cls-2" x1="178" y1="67.8" x2="179.8" y2="68.4"/>
              <line class="cls-2" x1="207.7" y1="67.8" x2="205.9" y2="68.4"/>
            </g>
            <g>
              <line class="cls-2" x1="183.5" y1="85.5" x2="184.6" y2="83.9"/>
              <line class="cls-2" x1="202.3" y1="85.5" x2="201.1" y2="83.9"/>
            </g>
            <g>
              <path class="cls-4" d="M196.1,80.1c-.9-1.8-1.7-3.8-2.1-5.8,0,0,2,1.1,4.9,3.9"/>
              <path class="cls-4" d="M200.9,72c-1.9.3-4.2.5-6.1.2,0,0,1.7-1.6,5.2-3.4"/>
              <path class="cls-4" d="M189.6,80.1c.9-1.8,1.7-3.8,2.1-5.8,0,0-2,1.1-4.9,3.9"/>
              <path class="cls-4" d="M184.9,72c1.9.3,4.2.5,6.1.2,0,0-1.7-1.6-5.2-3.4"/>
              <path class="cls-4" d="M194.6,65c-.3,1.9-.8,4.1-1.7,5.9,0,0-1-2.1-1.7-6"/>
            </g>
            <path class="cls-5" d="M192.9,77.4c-2.4,0-4.4-2-4.4-4.4s2-4.4,4.4-4.4,4.4,2,4.4,4.4-2,4.4-4.4,4.4Z"/>
          </g>
          <g>
            <g>
              <line class="cls-3" x1="118.9" y1="73" x2="94.4" y2="73"/>
              <line class="cls-3" x1="118.6" y1="73" x2="143.7" y2="73"/>
              <path class="cls-3" d="M127.5,65.1h7.1c-2.7-5.4-8.1-9.1-14.3-9.7v13.6h19.7c-1.9-10-10.7-17.6-21.2-17.6s-19.4,7.6-21.2,17.6h19.7v-13.6c-6.2.5-11.6,4.3-14.3,9.7h7.1"/>
              <path class="cls-3" d="M127.5,80.9h7.1c-2.7,5.4-8.1,9.1-14.3,9.7v-13.6h19.7c-1.9,10-10.7,17.6-21.2,17.6s-19.4-7.6-21.2-17.6h19.7v13.6c-6.2-.5-11.6-4.3-14.3-9.7h7.1"/>
              <g>
                <path class="cls-3" d="M101.6,76.8c-.3-1.2-.4-2.5-.4-3.8s.1-2.6.4-3.9"/>
                <path class="cls-3" d="M136.2,76.8c.3-1.2.4-2.5.4-3.8s-.1-2.6-.4-3.9"/>
              </g>
            </g>
            <circle class="cls-3" cx="118.9" cy="73" r="31"/>
            <path class="cls-3" d="M118.9,97.7c-13.6,0-24.7-11.1-24.7-24.7s11.1-24.7,24.7-24.7,24.7,11.1,24.7,24.7-11.1,24.7-24.7,24.7Z"/>
            <g>
              <path class="cls-3" d="M120.8,48v-1.6h0c.9,0,1.9.2,2.8.3v-2.1c-1.5-.3-3.1-.4-4.7-.4s-3.2.1-4.7.4v2.1c.9-.2,1.8-.3,2.8-.3v1.6"/>
              <path class="cls-3" d="M117,97.9v1.6h0c-.9,0-1.9-.2-2.8-.3v2.1c1.5.3,3.1.4,4.7.4s3.2-.1,4.7-.4v-2.1c-.9.2-1.8.3-2.8.3v-1.6"/>
              <path class="cls-3" d="M102.6,54l-1.1-1.1h0c.7-.6,1.4-1.2,2.2-1.7l-1.5-1.5c-2.6,1.8-4.8,4.1-6.6,6.6l1.5,1.5c.5-.8,1.1-1.5,1.7-2.2l1.1,1.1"/>
              <path class="cls-3" d="M135.2,92l1.1,1.1h0c-.7.6-1.4,1.2-2.2,1.7l1.5,1.5c2.6-1.8,4.8-4.1,6.6-6.6l-1.5-1.5c-.5.8-1.1,1.5-1.7,2.2l-1.1-1.1"/>
              <path class="cls-3" d="M93.9,71.1h-1.6c0-.9.2-1.9.3-2.8h-2.1c-.3,1.5-.4,3.1-.4,4.7s.1,3.2.4,4.7h2.1c-.2-.9-.3-1.8-.3-2.8h1.6"/>
              <path class="cls-3" d="M143.9,74.9h1.6c0,.9-.2,1.9-.3,2.8h2.1c.3-1.5.4-3.1.4-4.7s-.1-3.2-.4-4.7h-2.1c.2.9.3,1.8.3,2.8h-1.6"/>
              <path class="cls-3" d="M99.9,89.3l-1.1,1.1h0c-.6-.7-1.2-1.4-1.7-2.2l-1.5,1.5c1.8,2.6,4.1,4.8,6.6,6.6l1.5-1.5c-.8-.5-1.5-1.1-2.2-1.7l1.1-1.1"/>
              <path class="cls-3" d="M137.9,56.7l1.1-1.1h0c.6.7,1.2,1.4,1.7,2.2l1.5-1.5c-1.8-2.6-4.1-4.8-6.6-6.6l-1.5,1.5c.8.5,1.5,1.1,2.2,1.7l-1.1,1.1"/>
            </g>
          </g>
          <circle class="cls-3" cx="-29.1" cy="73" r="31"/>
        </g>
        <g>
          <g>
            <g>
              <g>
                <path class="cls-2" d="M259.1-8.5c-1.1-.4-2.2.2-2.6,1.3-.1.3-.1.7,0,1-.9.2-1.6.8-1.9,1.7-.3.9,0,1.8.5,2.5-.3.2-.5.5-.6.9-.4,1.1.2,2.2,1.3,2.6,2.2.7,9,.4,9.9-2.3s-4.5-7-6.7-7.7Z"/>
                <path class="cls-2" d="M276.2-8.5c1.1-.4,2.2.2,2.6,1.3.1.3.1.7,0,1,.9.2,1.6.8,1.9,1.7.3.9,0,1.8-.5,2.5.3.2.5.5.6.9.4,1.1-.2,2.2-1.3,2.6-2.2.7-9,.4-9.9-2.3s4.5-7,6.7-7.7Z"/>
              </g>
              <g>
                <path class="cls-2" d="M257,5.3c-.7.9-.5,2.2.5,2.9.3.2.6.3,1,.4,0,.9.3,1.8,1,2.3s1.7.6,2.5.3c.1.3.4.6.7.8.9.7,2.2.5,2.9-.5,1.4-1.9,3.1-8.5.9-10.1-2.3-1.6-8,2.1-9.4,4Z"/>
                <path class="cls-2" d="M278.2,5.3c.7.9.5,2.2-.5,2.9-.3.2-.6.3-1,.4,0,.9-.3,1.8-1,2.3s-1.7.6-2.5.3c-.1.3-.4.6-.7.8-.9.7-2.2.5-2.9-.5-1.4-1.9-3.1-8.5-.9-10.1,2.3-1.6,8,2.1,9.4,4Z"/>
              </g>
            </g>
            <path class="cls-2" d="M267.6,15.8c-8.7,0-15.8-7.1-15.8-15.8s7.1-15.8,15.8-15.8S283.4-8.7,283.4,0s-7.1,15.8-15.8,15.8Z"/>
            <g>
              <line class="cls-2" x1="258.2" y1="12.5" x2="259.4" y2="10.9"/>
              <line class="cls-2" x1="277" y1="12.5" x2="275.9" y2="10.9"/>
            </g>
            <g>
              <path class="cls-4" d="M270.9,7.1c-.9-1.8-1.7-3.8-2.1-5.8,0,0,2,1.1,4.9,3.9"/>
              <path class="cls-4" d="M264.4,7.1c.9-1.8,1.7-3.8,2.1-5.8,0,0-2,1.1-4.9,3.9"/>
            </g>
            <path class="cls-5" d="M267.6,4.4c-2.4,0-4.4-2-4.4-4.4s2-4.4,4.4-4.4S272-2.4,272,0s-2,4.4-4.4,4.4Z"/>
          </g>
          <g>
            <circle class="cls-3" cx="193.6" cy="0" r="31"/>
            <path class="cls-3" d="M193.6,24.7C180,24.7,169,13.6,169,0s11.1-24.7,24.7-24.7S218.3-13.6,218.3,0s-11.1,24.7-24.7,24.7Z"/>
            <path class="cls-3" d="M193.6,21.8C181.6,21.8,171.8,12,171.8,0s9.8-21.8,21.8-21.8S215.5-12,215.5,0s-9.8,21.8-21.8,21.8Z"/>
            <g>
              <line class="cls-3" x1="193.6" y1="-21.8" x2="193.6" y2="21.8"/>
              <line class="cls-3" x1="215.5" y1="0" x2="171.8" y2="0"/>
            </g>
            <g>
              <g>
                <path class="cls-3" d="M196.3,4.6v14.7l2.3-1.4c2.5-1.5,4-4.2,4-7.1v-1.9h-2.5c-.7,0-1.3.6-1.3,1.3v2.7"/>
                <path class="cls-3" d="M206.7,5h-2.7c-.7,0-1.3.6-1.3,1.3v2.5h1.7c2.9,0,5.6-1.5,7.1-4l1.4-2.3h-14.4"/>
              </g>
              <g>
                <path class="cls-3" d="M190.9,4.6v14.7l-2.3-1.4c-2.5-1.5-4-4.2-4-7.1v-1.9h2.5c.7,0,1.3.6,1.3,1.3v2.7"/>
                <path class="cls-3" d="M180.6,5h2.7c.7,0,1.3.6,1.3,1.3v2.5h-1.7c-2.9,0-5.6-1.5-7.1-4l-1.4-2.3h14.4"/>
              </g>
            </g>
            <g>
              <g>
                <path class="cls-3" d="M165.6,6.2c-.4-2-.7-4.1-.7-6.2s.2-4.2.7-6.3"/>
                <path class="cls-3" d="M221.6,6.2c.4-2,.7-4.1.7-6.2s-.2-4.2-.7-6.3"/>
                <path class="cls-3" d="M199.8,28c-2,.4-4.1.7-6.2.7s-4.2-.2-6.3-.7"/>
                <path class="cls-3" d="M178.2,24.2c-1.7-1.1-3.4-2.4-4.9-3.9-1.5-1.5-2.8-3.2-3.9-4.9"/>
                <path class="cls-3" d="M217.8,15.4c-1.1,1.7-2.4,3.4-3.9,4.9-1.5,1.5-3.2,2.8-4.9,3.9"/>
              </g>
              <g>
                <line class="cls-3" x1="193.7" y1="28.7" x2="193.7" y2="24.7"/>
                <line class="cls-3" x1="165" y1="0" x2="169" y2="0"/>
                <line class="cls-3" x1="222.3" y1="0" x2="218.3" y2="0"/>
                <line class="cls-3" x1="213.9" y1="20.3" x2="211.1" y2="17.4"/>
                <line class="cls-3" x1="173.4" y1="20.3" x2="176.2" y2="17.4"/>
              </g>
            </g>
          </g>
        </g>
        <g>
          <g>
            <g>
              <g>
                <path class="cls-2" d="M110.1-8.5c-1.1-.4-2.2.2-2.6,1.3-.1.3-.1.7,0,1-.9.2-1.6.8-1.9,1.7-.3.9,0,1.8.5,2.5-.3.2-.5.5-.6.9-.4,1.1.2,2.2,1.3,2.6,2.2.7,9,.4,9.9-2.3s-4.5-7-6.7-7.7Z"/>
                <path class="cls-2" d="M127.2-8.5c1.1-.4,2.2.2,2.6,1.3.1.3.1.7,0,1,.9.2,1.6.8,1.9,1.7.3.9,0,1.8-.5,2.5.3.2.5.5.6.9.4,1.1-.2,2.2-1.3,2.6-2.2.7-9,.4-9.9-2.3s4.5-7,6.7-7.7Z"/>
              </g>
              <g>
                <path class="cls-2" d="M108,5.3c-.7.9-.5,2.2.5,2.9.3.2.6.3,1,.4,0,.9.3,1.8,1,2.3s1.7.6,2.5.3c.1.3.4.6.7.8.9.7,2.2.5,2.9-.5,1.4-1.9,3.1-8.5.9-10.1-2.3-1.6-8,2.1-9.4,4Z"/>
                <path class="cls-2" d="M129.2,5.3c.7.9.5,2.2-.5,2.9-.3.2-.6.3-1,.4,0,.9-.3,1.8-1,2.3s-1.7.6-2.5.3c-.1.3-.4.6-.7.8-.9.7-2.2.5-2.9-.5-1.4-1.9-3.1-8.5-.9-10.1,2.3-1.6,8,2.1,9.4,4Z"/>
              </g>
            </g>
            <path class="cls-2" d="M118.6,15.8C109.9,15.8,102.8,8.7,102.8,0s7.1-15.8,15.8-15.8S134.4-8.7,134.4,0s-7.1,15.8-15.8,15.8Z"/>
            <g>
              <line class="cls-2" x1="109.2" y1="12.5" x2="110.4" y2="10.9"/>
              <line class="cls-2" x1="128" y1="12.5" x2="126.9" y2="10.9"/>
            </g>
            <g>
              <path class="cls-4" d="M121.9,7.1c-.9-1.8-1.7-3.8-2.1-5.8,0,0,2,1.1,4.9,3.9"/>
              <path class="cls-4" d="M115.4,7.1c.9-1.8,1.7-3.8,2.1-5.8,0,0-2,1.1-4.9,3.9"/>
            </g>
            <path class="cls-5" d="M118.6,4.4c-2.4,0-4.4-2-4.4-4.4s2-4.4,4.4-4.4S123-2.4,123,0s-2,4.4-4.4,4.4Z"/>
          </g>
          <g>
            <g>
              <line class="cls-3" x1="44.6" y1="0" x2="20.2" y2="0"/>
              <line class="cls-3" x1="44.3" y1="0" x2="69.4" y2="0"/>
              <path class="cls-3" d="M53.3,7.9h7.1c-2.7,5.4-8.1,9.1-14.3,9.7V4h19.7c-1.9,10-10.7,17.6-21.2,17.6S25.3,14,23.4,4h19.7v13.6c-6.2-.5-11.6-4.3-14.3-9.7h7.1"/>
              <g>
                <path class="cls-3" d="M27.3,3.8c-.3-1.2-.4-2.5-.4-3.8s.1-2.6.4-3.9"/>
                <path class="cls-3" d="M61.9,3.8c.3-1.2.4-2.5.4-3.8s-.1-2.6-.4-3.9"/>
              </g>
            </g>
            <circle class="cls-3" cx="44.6" cy="0" r="31"/>
            <path class="cls-3" d="M44.6,24.7C31,24.7,20,13.6,20,0s11.1-24.7,24.7-24.7S69.3-13.6,69.3,0s-11.1,24.7-24.7,24.7Z"/>
            <g>
              <path class="cls-3" d="M42.7,24.9v1.6h0c-.9,0-1.9-.2-2.8-.3v2.1c1.5.3,3.1.4,4.7.4s3.2-.1,4.7-.4v-2.1c-.9.2-1.8.3-2.8.3v-1.6"/>
              <path class="cls-3" d="M60.9,19l1.1,1.1h0c-.7.6-1.4,1.2-2.2,1.7l1.5,1.5c2.6-1.8,4.8-4.1,6.6-6.6l-1.5-1.5c-.5.8-1.1,1.5-1.7,2.2l-1.1-1.1"/>
              <path class="cls-3" d="M19.7-1.9h-1.6c0-.9.2-1.9.3-2.8h-2.1c-.3,1.5-.4,3.1-.4,4.7s.1,3.2.4,4.7h2.1c-.2-.9-.3-1.8-.3-2.8h1.6"/>
              <path class="cls-3" d="M69.6,1.9h1.6c0,.9-.2,1.9-.3,2.8h2.1c.3-1.5.4-3.1.4-4.7s-.1-3.2-.4-4.7h-2.1c.2.9.3,1.8.3,2.8h-1.6"/>
              <path class="cls-3" d="M25.6,16.3l-1.1,1.1h0c-.6-.7-1.2-1.4-1.7-2.2l-1.5,1.5c1.8,2.6,4.1,4.8,6.6,6.6l1.5-1.5c-.8-.5-1.5-1.1-2.2-1.7l1.1-1.1"/>
            </g>
          </g>
        </g>
      </g>
    </pattern>
  </defs>
  <!-- Generator: Adobe Illustrator 28.6.0, SVG Export Plug-In . SVG Version: 1.2.0 Build 597)  -->
  <g>
    <g id="PATTERN">
      <rect class="cls-6" x="0" y="0" width="500" height="500"/>
    </g>
  </g>
</svg>