<?xml version="1.0" encoding="UTF-8"?>
<svg xmlns="http://www.w3.org/2000/svg" xmlns:xlink="http://www.w3.org/1999/xlink" version="1.1" viewBox="0 0 500 500">
  <defs>
    <style>
      .cls-1 {
        fill: none;
      }

      .cls-2 {
        fill: #d15d49;
      }

      .cls-3 {
        fill: url(#KoreanPattern);
      }
    </style>
    <pattern id="KoreanPattern" x="0" y="0" width="100" height="100" patternTransform="translate(250 250)" patternUnits="userSpaceOnUse" viewBox="0 0 100 100">
      <g opacity=".1">
        <rect class="cls-1" x="0" width="100" height="100"/>
        <path class="cls-2" d="M100,109c-.3,0-.5.2-.5.5s.2.5.5.5c2,0,3.6-1.6,3.6-3.6v-2.8h2.8c2,0,3.6-1.6,3.6-3.6s-.2-.5-.5-.5-.5.2-.5.5c0,1.4-1.1,2.6-2.6,2.6h-2.8v-2.6c0-.3-.2-.5-.5-.5s-.5.2-.5.5v2.6h-2.6c-.3,0-.5.2-.5.5s.2.5.5.5h2.6v2.8c0,1.4-1.1,2.6-2.6,2.6Z"/>
        <g>
          <path class="cls-2" d="M100,109c-1.4,0-2.6-1.1-2.6-2.6v-2.8h2.6c.3,0,.5-.2.5-.5s-.2-.5-.5-.5h-2.6v-2.6c0-.3-.2-.5-.5-.5s-.5.2-.5.5v2.6h-2.8c-1.4,0-2.6-1.1-2.6-2.6s-.2-.5-.5-.5-.5.2-.5.5c0,2,1.6,3.6,3.6,3.6h2.8v2.8c0,2,1.6,3.6,3.6,3.6s.5-.2.5-.5-.2-.5-.5-.5Z"/>
          <path class="cls-2" d="M0,109c-.3,0-.5.2-.5.5s.2.5.5.5c2,0,3.6-1.6,3.6-3.6v-2.8h2.8c2,0,3.6-1.6,3.6-3.6s-.2-.5-.5-.5-.5.2-.5.5c0,1.4-1.1,2.6-2.6,2.6h-2.8v-2.6c0-.3-.2-.5-.5-.5s-.5.2-.5.5v2.6H0c-.3,0-.5.2-.5.5s.2.5.5.5h2.6v2.8c0,1.4-1.1,2.6-2.6,2.6Z"/>
        </g>
        <path class="cls-2" d="M0,109c-1.4,0-2.6-1.1-2.6-2.6v-2.8H0c.3,0,.5-.2.5-.5s-.2-.5-.5-.5h-2.6v-2.6c0-.3-.2-.5-.5-.5s-.5.2-.5.5v2.6h-2.8c-1.4,0-2.6-1.1-2.6-2.6s-.2-.5-.5-.5-.5.2-.5.5c0,2,1.6,3.6,3.6,3.6h2.8v2.8c0,2,1.6,3.6,3.6,3.6s.5-.2.5-.5-.2-.5-.5-.5Z"/>
        <g>
          <path class="cls-2" d="M100,9c-.3,0-.5.2-.5.5s.2.5.5.5c2,0,3.6-1.6,3.6-3.6v-2.8h2.8C108.4,3.6,110,2,110,0s-.2-.5-.5-.5S109-.3,109,0c0,1.4-1.1,2.6-2.6,2.6h-2.8V0c0-.3-.2-.5-.5-.5S102.6-.3,102.6,0v2.6h-2.6c-.3,0-.5.2-.5.5s.2.5.5.5h2.6v2.8c0,1.4-1.1,2.6-2.6,2.6Z"/>
          <path class="cls-2" d="M106.4,96.4h-2.8v-2.8c0-2-1.6-3.6-3.6-3.6s-.5.2-.5.5.2.5.5.5c1.4,0,2.6,1.1,2.6,2.6v2.8h-2.6c-.3,0-.5.2-.5.5s.2.5.5.5h2.6v2.6c0,.3.2.5.5.5s.5-.2.5-.5v-2.6h2.8c1.4,0,2.6,1.1,2.6,2.6s.2.5.5.5.5-.2.5-.5c0-2-1.6-3.6-3.6-3.6Z"/>
        </g>
        <g>
          <path class="cls-2" d="M100,91c.3,0,.5-.2.5-.5s-.2-.5-.5-.5c-2,0-3.6,1.6-3.6,3.6v2.8h-2.8c-2,0-3.6,1.6-3.6,3.6s.2.5.5.5.5-.2.5-.5c0-1.4,1.1-2.6,2.6-2.6h2.8v2.6c0,.3.2.5.5.5s.5-.2.5-.5v-2.6h2.6c.3,0,.5-.2.5-.5s-.2-.5-.5-.5h-2.6v-2.8c0-1.4,1.1-2.6,2.6-2.6Z"/>
          <path class="cls-2" d="M100,9c-1.4,0-2.6-1.1-2.6-2.6v-2.8h2.6c.3,0,.5-.2.5-.5s-.2-.5-.5-.5h-2.6V0c0-.3-.2-.5-.5-.5S96.4-.3,96.4,0v2.6h-2.8C92.2,2.6,91,1.4,91,0s-.2-.5-.5-.5S90-.3,90,0c0,2,1.6,3.6,3.6,3.6h2.8v2.8c0,2,1.6,3.6,3.6,3.6s.5-.2.5-.5-.2-.5-.5-.5Z"/>
          <path class="cls-2" d="M0,9c-.3,0-.5.2-.5.5S-.3,10,0,10c2,0,3.6-1.6,3.6-3.6v-2.8h2.8C8.4,3.6,10,2,10,0s-.2-.5-.5-.5S9-.3,9,0c0,1.4-1.1,2.6-2.6,2.6h-2.8V0c0-.3-.2-.5-.5-.5S2.6-.3,2.6,0v2.6H0c-.3,0-.5.2-.5.5S-.3,3.6,0,3.6h2.6v2.8C2.6,7.8,1.4,9,0,9Z"/>
          <path class="cls-2" d="M6.4,96.4h-2.8v-2.8c0-2-1.6-3.6-3.6-3.6s-.5.2-.5.5.2.5.5.5c1.4,0,2.6,1.1,2.6,2.6v2.8H0c-.3,0-.5.2-.5.5s.2.5.5.5h2.6v2.6c0,.3.2.5.5.5s.5-.2.5-.5v-2.6h2.8c1.4,0,2.6,1.1,2.6,2.6s.2.5.5.5.5-.2.5-.5c0-2-1.6-3.6-3.6-3.6Z"/>
          <path class="cls-2" d="M86.1,50c0,9.9-4,19-10.5,25.5,0,0,0,0,0,0s0,0,0,0c-6.5,6.5-15.6,10.5-25.5,10.5s-19-4-25.5-10.5c0,0,0,0,0,0,0,0,0,0,0,0-6.5-6.5-10.5-15.6-10.5-25.5s4-19,10.5-25.5c0,0,0,0,0,0s0,0,0,0c6.5-6.5,15.6-10.5,25.5-10.5s19,4,25.5,10.5c0,0,0,0,0,0,0,0,0,0,0,0,6.5,6.5,10.5,15.6,10.5,25.5ZM85.1,50c0-9.5-3.8-18.2-10-24.5l-2,2c5.7,5.8,9.2,13.8,9.2,22.5s-3.5,16.7-9.2,22.5l2,2c6.2-6.3,10-15,10-24.5ZM71.8,27.5c-5.7-5.5-13.4-8.9-21.8-8.9s-16.2,3.4-21.8,8.9l1,1s0,0,0,0h0s0,0,0,0c.3.3,1.9.6,7.9,1,.3-1.6,1.1-3,2.3-4.2,5-5,16.3-5,21.3,0,1.2,1.2,2,2.7,2.3,4.3,6.8-.4,7.8-.9,7.9-1.1l1-1ZM69.4,63.1c-.9,0-1.9,0-3-.2-2.2-.5-4.6-1.7-7.2-3.5,1.8,2.5,3,4.9,3.5,7.2.2,1.1.3,2.1.2,3,3.9.2,6.1.5,7.2.7-.3-1.1-.6-3.2-.8-7.2ZM40.6,59.4c-2.5,1.8-4.9,3-7.2,3.5-1.1.2-2.1.3-3,.2-.2,3.9-.5,6.1-.7,7.2,1.1-.3,3.2-.6,7.2-.8,0-.9,0-1.9.2-3,.5-2.2,1.7-4.6,3.5-7.2ZM30.4,36.9c.9,0,1.9,0,3,.2,2.2.5,4.6,1.7,7.2,3.5-1.8-2.5-3-4.9-3.5-7.2-.2-1.1-.3-2.1-.2-3-3.9-.2-6.1-.5-7.2-.7.3,1.1.6,3.2.8,7.2ZM55.9,50c0-3.3-2.7-6-6-6s-6,2.7-6,6,2.7,6,6,6,6-2.7,6-6ZM61.8,33.3c.6-2.9,0-5.4-1.9-7.4-4.6-4.6-15.2-4.6-19.9,0s-2.6,4.4-1.9,7.4c.7,3.4,3.2,7.3,7.3,11.5,1.2-1.1,2.8-1.7,4.6-1.7s3.3.6,4.6,1.7c4.1-4.2,6.6-8.1,7.3-11.5ZM25.8,40.1c-4.6,4.6-4.6,15.2,0,19.9,1.9,1.9,4.4,2.6,7.4,1.9,3.4-.7,7.3-3.2,11.5-7.3-1.1-1.2-1.7-2.8-1.7-4.6s.6-3.3,1.7-4.6c-4.2-4.1-8.1-6.6-11.5-7.3-2.9-.6-5.4,0-7.4,1.9ZM40,74.1c4.6,4.6,15.2,4.6,19.9,0s2.6-4.4,1.9-7.4c-.7-3.4-3.2-7.3-7.3-11.5-1.2,1.1-2.8,1.7-4.6,1.7s-3.3-.6-4.6-1.7c-4.1,4.2-6.6,8.1-7.3,11.5-.6,2.9,0,5.4,1.9,7.4ZM74,59.9c4.6-4.6,4.6-15.2,0-19.9-1.9-1.9-4.4-2.6-7.4-1.9-3.4.7-7.3,3.2-11.5,7.3,1.1,1.2,1.7,2.8,1.7,4.6s-.6,3.3-1.7,4.6c4.2,4.1,8.1,6.6,11.5,7.3,2.9.6,5.4,0,7.4-1.9ZM70.2,29.7c-1.1.3-3.2.6-7.2.8,0,.9,0,1.9-.2,3-.5,2.2-1.7,4.6-3.5,7.2,2.5-1.8,4.9-3,7.2-3.5,1.1-.2,2.1-.3,3-.2.2-3.9.5-6.1.7-7.2ZM27.4,28.2c-5.5,5.7-8.9,13.4-8.9,21.8s3.4,16.2,8.9,21.8l1-1c.3-.3.6-1.9,1-7.9-1.6-.3-3-1.1-4.2-2.3-5-5-5-16.3,0-21.3,1.2-1.2,2.7-2,4.3-2.3-.4-6.8-.9-7.8-1.1-7.9l-1-1ZM28.1,72.5c5.7,5.5,13.4,8.9,21.8,8.9s16.2-3.4,21.8-8.9l-1-1h0s0,0,0,0c-.3-.3-1.9-.6-7.9-1-.3,1.6-1.1,3-2.3,4.2-2.5,2.5-6.6,3.7-10.6,3.7s-8.2-1.2-10.6-3.7c-1.2-1.2-2-2.7-2.3-4.3-6.8.4-7.8.9-7.9,1.1l-1,1ZM72.5,71.8c5.5-5.7,8.9-13.4,8.9-21.8s-3.4-16.2-8.9-21.8l-1,1c-.3.3-.6,1.9-1,7.9,1.6.3,3,1.1,4.2,2.3,5,5,5,16.3,0,21.3-1.2,1.2-2.7,2-4.3,2.3.4,6.8.9,7.8,1.1,7.9l1,1ZM49.9,14.8c-9.5,0-18.2,3.8-24.5,10l2,2c5.8-5.7,13.8-9.2,22.5-9.2s16.7,3.5,22.5,9.2l2-2c-6.3-6.2-15-10-24.5-10ZM14.7,50c0,9.5,3.8,18.2,10,24.5l2-2c-5.7-5.8-9.2-13.8-9.2-22.5s3.5-16.7,9.2-22.5l-2-2c-6.2,6.3-10,15-10,24.5ZM49.9,85.2c9.5,0,18.2-3.8,24.5-10l-2-2c-5.8,5.7-13.8,9.2-22.5,9.2s-16.7-3.5-22.5-9.2l-2,2c6.3,6.2,15,10,24.5,10Z"/>
          <circle class="cls-2" cx="49.9" cy="50" r="4.2"/>
          <path class="cls-2" d="M49.9,11.1c.9,0,1.7-.7,1.7-1.7s-.7-1.7-1.7-1.7-1.7.7-1.7,1.7.7,1.7,1.7,1.7Z"/>
          <path class="cls-2" d="M49.9,88.9c-.9,0-1.7.7-1.7,1.7s.7,1.7,1.7,1.7,1.7-.7,1.7-1.7-.7-1.7-1.7-1.7Z"/>
          <path class="cls-2" d="M10.8,47.1c-.9,0-1.7.7-1.7,1.7s.7,1.7,1.7,1.7,1.7-.7,1.7-1.7-.7-1.7-1.7-1.7Z"/>
          <path class="cls-2" d="M90.9,48.6c0-.9-.7-1.7-1.7-1.7s-1.7.7-1.7,1.7.7,1.7,1.7,1.7,1.7-.7,1.7-1.7Z"/>
        </g>
        <g>
          <path class="cls-2" d="M0,91c.3,0,.5-.2.5-.5s-.2-.5-.5-.5c-2,0-3.6,1.6-3.6,3.6v2.8h-2.8c-2,0-3.6,1.6-3.6,3.6s.2.5.5.5.5-.2.5-.5c0-1.4,1.1-2.6,2.6-2.6h2.8v2.6c0,.3.2.5.5.5s.5-.2.5-.5v-2.6H0c.3,0,.5-.2.5-.5s-.2-.5-.5-.5h-2.6v-2.8c0-1.4,1.1-2.6,2.6-2.6Z"/>
          <path class="cls-2" d="M0,9c-1.4,0-2.6-1.1-2.6-2.6v-2.8H0c.3,0,.5-.2.5-.5S.3,2.6,0,2.6h-2.6V0c0-.3-.2-.5-.5-.5S-3.6-.3-3.6,0v2.6h-2.8C-7.8,2.6-9,1.4-9,0s-.2-.5-.5-.5S-10-.3-10,0c0,2,1.6,3.6,3.6,3.6h2.8v2.8C-3.6,8.4-2,10,0,10s.5-.2.5-.5-.2-.5-.5-.5Z"/>
        </g>
        <path class="cls-2" d="M106.4-3.6h-2.8v-2.8c0-2-1.6-3.6-3.6-3.6s-.5.2-.5.5.2.5.5.5c1.4,0,2.6,1.1,2.6,2.6v2.8h-2.6c-.3,0-.5.2-.5.5s.2.5.5.5h2.6V0c0,.3.2.5.5.5S103.6.3,103.6,0v-2.6h2.8c1.4,0,2.6,1.1,2.6,2.6s.2.5.5.5S110,.3,110,0c0-2-1.6-3.6-3.6-3.6Z"/>
        <g>
          <path class="cls-2" d="M100-9c.3,0,.5-.2.5-.5s-.2-.5-.5-.5c-2,0-3.6,1.6-3.6,3.6v2.8h-2.8c-2,0-3.6,1.6-3.6,3.6s.2.5.5.5S91,.3,91,0c0-1.4,1.1-2.6,2.6-2.6h2.8V0c0,.3.2.5.5.5s.5-.2.5-.5v-2.6h2.6c.3,0,.5-.2.5-.5s-.2-.5-.5-.5h-2.6v-2.8c0-1.4,1.1-2.6,2.6-2.6Z"/>
          <path class="cls-2" d="M6.4-3.6h-2.8v-2.8C3.6-8.4,2-10,0-10s-.5.2-.5.5S-.3-9,0-9c1.4,0,2.6,1.1,2.6,2.6v2.8H0c-.3,0-.5.2-.5.5S-.3-2.6,0-2.6h2.6V0c0,.3.2.5.5.5S3.6.3,3.6,0v-2.6h2.8C7.8-2.6,9-1.4,9,0s.2.5.5.5S10,.3,10,0c0-2-1.6-3.6-3.6-3.6Z"/>
        </g>
        <path class="cls-2" d="M0-9c.3,0,.5-.2.5-.5S.3-10,0-10c-2,0-3.6,1.6-3.6,3.6v2.8h-2.8C-8.4-3.6-10-2-10,0s.2.5.5.5S-9,.3-9,0c0-1.4,1.1-2.6,2.6-2.6h2.8V0c0,.3.2.5.5.5S-2.6.3-2.6,0v-2.6H0c.3,0,.5-.2.5-.5S.3-3.6,0-3.6h-2.6v-2.8C-2.6-7.8-1.4-9,0-9Z"/>
      </g>
    </pattern>
  </defs>
  <!-- Generator: Adobe Illustrator 28.6.0, SVG Export Plug-In . SVG Version: 1.2.0 Build 597)  -->
  <g>
    <g id="PATTERN">
      <rect class="cls-3" width="500" height="500"/>
    </g>
  </g>
</svg>