<?xml version="1.0" encoding="UTF-8"?>
<svg width="512px" height="512px" viewBox="0 0 512 512" version="1.1" xmlns="http://www.w3.org/2000/svg" xmlns:xlink="http://www.w3.org/1999/xlink">
    <title>favicon</title>
    <g id="favicon" stroke="none" stroke-width="1" fill="none" fill-rule="evenodd">
        <rect id="base" fill="#B13B2E" x="0" y="0" width="512" height="512" rx="160"></rect>
        <path d="M238.78762,328.738617 L238.78762,273.99492 C273.940946,275.810631 291.517609,280.259124 291.517609,287.340398 C291.517609,291.698105 284.596229,296.418955 270.753469,301.502947 L270.753469,328.738617 L437.959445,328.738617 L465.553895,294.149316 C466.828887,295.420314 470.562789,298.597808 476.755603,303.6818 C484.951974,310.218361 494.059054,319.296918 504.076841,330.917471 L497.792956,342.628809 L279.223052,342.628809 C279.587335,342.991951 280.315902,343.536664 281.408751,344.262949 C282.137318,344.807662 282.683742,345.170805 283.048026,345.352376 C342.790466,394.739725 419.107791,430.600024 512,452.933274 C500.707222,460.922404 491.32693,471.725886 483.859125,485.343721 C397.706154,454.658199 326.670936,410.627199 270.753469,353.25072 L270.753469,509.311111 L238.78762,509.311111 L238.78762,369.864479 C172.852366,426.696244 95.624333,468.36682 7.10352188,494.876206 L0,482.075441 C89.9779438,448.666352 163.381003,402.184141 220.209178,342.628809 L19.398079,342.628809 L13.9338314,328.738617 L238.78762,328.738617 Z M219.116329,76.5363098 L233.323372,76.5363098 C239.151903,53.2952045 242.885806,28.7831012 244.52508,3 C279.678406,7.35770725 297.255069,13.077198 297.255069,20.1584723 C297.255069,24.5161795 289.787264,28.6015301 274.851654,32.4145239 C264.469584,52.2057777 256.182142,66.9130397 249.989328,76.5363098 L295.06937,76.5363098 L314.467449,54.7477736 C333.045891,70.5444624 342.335112,80.076947 342.335112,83.3452274 C342.335112,84.9793676 341.060121,86.6135079 338.510139,88.2476481 L328.401281,95.3289224 L328.401281,279.169697 L299.440768,279.169697 L299.440768,259.560014 L214.198506,259.560014 L214.198506,284.616831 L185.237994,284.616831 L185.237994,63.1908314 C204.909285,70.8168191 216.202063,75.2653119 219.116329,76.5363098 Z M214.198506,90.4265017 L214.198506,159.060391 L299.440768,159.060391 L299.440768,90.4265017 L214.198506,90.4265017 Z M299.440768,245.669822 L299.440768,172.950583 L214.198506,172.950583 L214.198506,245.669822 L299.440768,245.669822 Z M44.2604055,249.482816 C75.0423337,204.271604 102.454642,152.433044 126.497332,93.9671388 C154.364995,104.498265 168.298826,113.213679 168.298826,120.113382 C168.298826,125.197374 161.104233,128.011727 146.715048,128.55644 C124.493774,167.049521 96.8082533,206.632028 63.6584845,247.303963 L67.2102455,247.303963 C94.713625,244.035682 117.299182,240.676616 134.966916,237.226765 C130.777659,221.611647 124.949128,207.085956 117.481323,193.649692 L128.136606,187.113131 C157.27926,215.438228 171.850587,241.22133 171.850587,264.462435 C171.850587,280.077553 165.657773,287.885111 153.272145,287.885111 C144.165066,287.885111 139.338314,280.622266 138.791889,266.096575 C138.791889,261.920439 138.245464,256.745662 137.152615,250.572243 C108.192102,260.921798 77.7744575,269.818783 45.8996798,277.2632 C42.9854144,289.246895 39.4336535,295.238742 35.244397,295.238742 C28.6872999,295.238742 21.7659196,280.713052 14.4802561,251.66167 C32.6944148,250.572243 42.6211313,249.845959 44.2604055,249.482816 Z M367.743863,243.490969 L369.929562,239.950332 C400.711491,199.096826 428.488083,150.254191 453.259338,93.4224254 C482.766275,106.132405 497.519744,115.755675 497.519744,122.292236 C497.519744,127.194657 489.505514,129.645867 473.477054,129.645867 C448.88794,167.594234 419.927428,205.088674 386.595518,242.129185 C423.57026,238.860905 448.614728,236.318909 461.728922,234.503198 C457.721807,222.15636 450.982568,209.26481 441.511206,195.828546 L451.073639,188.747272 C484.951974,215.801371 501.891142,240.858187 501.891142,263.917722 C501.891142,278.806555 495.698328,286.250971 483.3127,286.250971 C474.205621,286.250971 469.378869,279.895982 468.832444,267.186002 C468.103878,259.196872 467.19317,252.932668 466.10032,248.39339 C442.239772,255.474664 408.452508,263.463794 364.738527,272.360779 C361.459979,283.981332 357.726076,289.791608 353.53682,289.791608 C346.251156,289.791608 339.78513,274.902775 334.138741,245.125109 C351.442191,244.580396 362.643899,244.035682 367.743863,243.490969 Z M53.8228388,111.125611 C67.6655994,84.9793676 79.4137318,54.8385592 89.0672359,20.7031857 C119.302739,29.2370291 134.420491,36.8630168 134.420491,43.5811488 C134.420491,47.938856 127.134827,50.9347798 112.563501,52.56892 C99.4493063,75.9915964 83.4208467,98.6879884 64.4781217,120.658096 C78.1387407,134.457502 84.9690502,147.439838 84.9690502,159.605104 C84.9690502,173.041368 79.4137318,179.7595 68.303095,179.7595 C60.1067236,179.7595 54.642476,173.949224 51.9103522,162.328671 C46.263963,140.540135 33.2408396,119.931811 12.8409819,100.5037 L20.7641409,91.7882852 C33.3319104,97.7801327 44.3514763,104.225908 53.8228388,111.125611 Z M380.584845,106.22319 C394.427606,77.7165222 405.356101,48.4835694 413.370331,18.5243321 C443.605834,27.9660311 458.723586,36.1367322 458.723586,43.0364354 C458.723586,47.5757137 451.255781,50.3900663 436.320171,51.4794932 C424.480968,74.1758851 409.454287,95.7828502 391.240128,116.300389 C405.26503,131.00765 412.277481,144.716271 412.277481,157.426251 C412.277481,170.862515 406.175738,177.580647 393.972252,177.580647 C385.958022,177.580647 380.858058,171.861156 378.672359,160.422174 C374.847385,137.36264 363.372465,115.755675 344.247599,95.6012791 L352.990395,87.1582213 C363.372465,93.1500687 372.570615,99.5050585 380.584845,106.22319 Z" id="形状" fill="#FFFFFF" fill-rule="nonzero"></path>
        <path d="M234.78762,269.782983 L238.99395,270.000245 C277.182381,271.972723 295.517609,276.613201 295.517609,287.340398 C295.517609,293.79022 288.526844,298.933385 274.759414,304.267407 L274.753,324.738 L436.033,324.738 L462.427028,291.654782 L465.213496,288.161979 L468.377883,291.316456 C469.521711,292.456702 473.22311,295.606536 479.249602,300.554506 C487.661428,307.262891 496.938327,316.510735 507.106472,328.305702 L508.900827,330.387139 L507.601513,332.808683 L501.317628,344.520022 L500.186129,346.628809 L290.957,346.628 L290.973291,346.641163 C348.800228,392.887925 421.852979,426.807036 510.17016,448.374145 L512.93504,449.044096 L521.509435,451.105562 L514.310159,456.198724 C503.528827,463.826028 494.550437,474.166633 487.366379,487.267044 L485.727622,490.255381 L482.517015,489.111843 C400.142523,459.77212 331.441939,418.274232 276.456743,364.615914 L274.753,362.945 L274.753469,513.311111 L234.78762,513.311111 L234.787,378.509 L233.380434,379.685643 C169.467355,432.870207 95.3031913,472.278308 10.9192069,497.903436 L8.25105241,498.708069 L5.16771961,499.631437 L3.60596357,496.817104 L-3.49755831,484.016339 L-5.75633507,479.945954 L-1.39233263,478.325586 C84.4601602,446.44829 155.066609,402.636561 210.469136,346.896987 L210.734,346.628 L16.6732539,346.628809 L15.6757471,344.093133 L10.2114995,330.202941 L8.06189489,324.738617 L234.787,324.738 L234.78762,269.782983 Z M238.78762,273.99492 L238.78762,328.738617 L13.9338314,328.738617 L19.398079,342.628809 L220.209178,342.628809 C163.381003,402.184141 89.9779438,448.666352 -2.84217094e-14,482.075441 L7.10352188,494.876206 C95.624333,468.36682 172.852366,426.696244 238.78762,369.864479 L238.78762,509.311111 L270.753469,509.311111 L270.753469,353.25072 C326.670936,410.627199 397.706154,454.658199 483.859125,485.343721 C491.32693,471.725886 500.707222,460.922404 512,452.933274 C419.107791,430.600024 342.790466,394.739725 283.048026,345.352376 C282.683742,345.170805 282.137318,344.807662 281.408751,344.262949 C280.315902,343.536664 279.587335,342.991951 279.223052,342.628809 L497.792956,342.628809 L504.076841,330.917471 C494.059054,319.296918 484.951974,310.218361 476.755603,303.6818 C475.306221,302.49193 473.991528,301.40649 472.811524,300.425479 L472.181244,299.90074 C468.685345,296.985902 466.476229,295.068761 465.553895,294.149316 L437.959445,328.738617 L270.753469,328.738617 L270.753469,301.502947 C284.596229,296.418955 291.517609,291.698105 291.517609,287.340398 C291.517609,280.259124 273.940946,275.810631 238.78762,273.99492 Z M86.3061445,15.7676066 L90.1537701,16.8535827 C122.668991,26.0308668 138.420491,33.9765419 138.420491,43.5811488 C138.420491,50.7703521 130.456132,54.3545738 115.121497,56.2925049 L115.051,56.301 L114.30904,57.6051171 C101.980011,79.1499865 87.2039793,100.07314 69.9841572,120.374174 L69.877,120.5 L69.92627,120.55234 C82.3732311,133.880067 88.796547,146.714329 88.9656227,159.103101 L88.9690502,159.605104 C88.9690502,162.394256 88.7370551,164.961915 88.2778185,167.297451 L88.261,167.377 L88.3492285,167.207855 C100.183542,144.272728 111.374134,120.061138 121.920542,94.5728257 L122.797918,92.4458444 L124.275963,88.8516031 L127.911327,90.2253988 C157.703561,101.483816 172.298826,110.612948 172.298826,120.113382 C172.298826,124.564716 169.338192,127.814949 164.360065,129.762274 C160.762838,131.169423 155.849622,132.036768 149.55164,132.421685 L149.082,132.448 L148.102201,134.130366 C127.524937,169.305666 102.437285,205.362854 72.8408491,242.305195 L72.582,242.626 L73.3797866,242.52913 C95.6237986,239.79369 114.427591,236.997222 129.783368,234.142279 L129.943,234.112 L129.540069,232.746219 C125.727353,219.98438 120.76223,208.000811 114.644888,196.790994 L113.985049,195.592903 L112.123603,192.243741 L115.389702,190.240129 L126.044985,183.703568 L128.695068,182.077855 L130.924513,184.244756 C160.767546,213.250585 175.850587,239.939133 175.850587,264.462435 C175.850587,282.109732 168.096933,291.885111 153.272145,291.885111 C141.54559,291.885111 135.411983,282.655833 134.794716,266.24694 L134.791889,266.096575 C134.791889,263.277859 134.520841,259.921725 133.97521,256.038487 L133.961,255.943 L133.347279,256.159317 C106.653371,265.48618 78.7477982,273.597808 49.630947,280.494725 L49.176,280.601 L49.1557862,280.680131 C45.9433064,292.667391 41.8117053,299.069025 35.4981076,299.235414 L35.244397,299.238742 C25.7270015,299.238742 18.4669386,284.002269 10.6004042,252.63468 L9.42724801,247.956752 L14.2414346,247.668806 C28.7250068,246.802513 38.1827923,246.145305 41.8370505,245.777105 L41.948,245.766 L42.0727555,245.583343 C55.8523459,225.217651 68.95255,203.503929 81.3728673,180.441897 L82.049,179.181 L81.9018636,179.312157 C78.6088229,182.162512 74.1915963,183.685974 68.706359,183.756904 L68.303095,183.7595 C57.96661,183.7595 51.1310174,176.491037 48.0382571,163.332105 C42.5913256,142.313245 29.969684,122.340243 10.0823853,103.400274 L7.25220358,100.704908 L9.88123085,97.8129983 L17.8043899,89.0975838 L19.803271,86.8988298 L22.4855601,88.177646 C33.5628618,93.4588936 43.4756846,99.0975182 52.2234024,105.097585 L52.392,105.214 L52.3977299,105.205342 C64.958653,80.7210515 75.7352682,52.7739317 84.7208361,21.3632736 L85.2181916,19.6146737 L86.3061445,15.7676066 Z M126.497332,93.9671388 C102.454642,152.433044 75.0423337,204.271604 44.2604055,249.482816 C42.6211313,249.845959 32.6944148,250.572243 14.4802561,251.66167 C21.7659196,280.713052 28.6872999,295.238742 35.244397,295.238742 C39.4336535,295.238742 42.9854144,289.246895 45.8996798,277.2632 C77.7744575,269.818783 108.192102,260.921798 137.152615,250.572243 C138.245464,256.745662 138.791889,261.920439 138.791889,266.096575 C139.338314,280.622266 144.165066,287.885111 153.272145,287.885111 C165.657773,287.885111 171.850587,280.077553 171.850587,264.462435 C171.850587,241.22133 157.27926,215.438228 128.136606,187.113131 L117.481323,193.649692 C124.949128,207.085956 130.777659,221.611647 134.966916,237.226765 C117.299182,240.676616 94.713625,244.035682 67.2102455,247.303963 L63.6584845,247.303963 C96.8082533,206.632028 124.493774,167.049521 146.715048,128.55644 C161.104233,128.011727 168.298826,125.197374 168.298826,120.113382 C168.298826,113.213679 154.364995,104.498265 126.497332,93.9671388 Z M453.259338,93.4224254 C428.488083,150.254191 400.711491,199.096826 369.929562,239.950332 L367.743863,243.490969 C362.643899,244.035682 351.442191,244.580396 334.138741,245.125109 C339.78513,274.902775 346.251156,289.791608 353.53682,289.791608 C357.726076,289.791608 361.459979,283.981332 364.738527,272.360779 C408.452508,263.463794 442.239772,255.474664 466.10032,248.39339 C467.19317,252.932668 468.103878,259.196872 468.832444,267.186002 C469.378869,279.895982 474.205621,286.250971 483.3127,286.250971 C495.698328,286.250971 501.891142,278.806555 501.891142,263.917722 C501.891142,240.858187 484.951974,215.801371 451.073639,188.747272 L441.511206,195.828546 C450.982568,209.26481 457.721807,222.15636 461.728922,234.503198 C448.614728,236.318909 423.57026,238.860905 386.595518,242.129185 C419.927428,205.088674 448.88794,167.594234 473.477054,129.645867 C489.505514,129.645867 497.519744,127.194657 497.519744,122.292236 C497.519744,115.755675 482.766275,106.132405 453.259338,93.4224254 Z M244.52508,3 C242.885806,28.7831012 239.151903,53.2952045 233.323372,76.5363098 L219.116329,76.5363098 C218.238915,76.1536438 216.602021,75.4829495 214.205645,74.5242271 L213.680511,74.3143779 C208.044546,72.0646719 198.563707,68.3568231 185.237994,63.1908314 L185.237994,284.616831 L214.198506,284.616831 L214.198506,259.560014 L299.440768,259.560014 L299.440768,279.169697 L328.401281,279.169697 L328.401281,95.3289224 L338.510139,88.2476481 C341.060121,86.6135079 342.335112,84.9793676 342.335112,83.3452274 C342.335112,81.6130388 339.72577,78.1212352 334.507086,72.8698167 L333.905144,72.2677994 C329.30698,67.6962922 322.827748,61.8562835 314.467449,54.7477736 L295.06937,76.5363098 L249.989328,76.5363098 C256.182142,66.9130397 264.469584,52.2057777 274.851654,32.4145239 C289.787264,28.6015301 297.255069,24.5161795 297.255069,20.1584723 C297.255069,13.077198 279.678406,7.35770725 244.52508,3 Z M299.440768,172.950583 L299.440768,245.669822 L214.198506,245.669822 L214.198506,172.950583 L299.440768,172.950583 Z M295.44,176.95 L218.198,176.95 L218.198,241.669 L295.44,241.669 L295.44,176.95 Z M89.0672359,20.7031857 C79.4137318,54.8385592 67.6655994,84.9793676 53.8228388,111.125611 C44.3514763,104.225908 33.3319104,97.7801327 20.7641409,91.7882852 L12.8409819,100.5037 C33.2408396,119.931811 46.263963,140.540135 51.9103522,162.328671 C54.642476,173.949224 60.1067236,179.7595 68.303095,179.7595 C79.4137318,179.7595 84.9690502,173.041368 84.9690502,159.605104 C84.9690502,147.439838 78.1387407,134.457502 64.4781217,120.658096 C83.4208467,98.6879884 99.4493063,75.9915964 112.563501,52.56892 C127.134827,50.9347798 134.420491,47.938856 134.420491,43.5811488 C134.420491,36.8630168 119.302739,29.2370291 89.0672359,20.7031857 Z M413.370331,18.5243321 C405.356101,48.4835694 394.427606,77.7165222 380.584845,106.22319 C372.570615,99.5050585 363.372465,93.1500687 352.990395,87.1582213 L344.247599,95.6012791 C363.372465,115.755675 374.847385,137.36264 378.672359,160.422174 C380.858058,171.861156 385.958022,177.580647 393.972252,177.580647 C406.175738,177.580647 412.277481,170.862515 412.277481,157.426251 C412.277481,144.716271 405.26503,131.00765 391.240128,116.300389 C409.454287,95.7828502 424.480968,74.1758851 436.320171,51.4794932 C451.255781,50.3900663 458.723586,47.5757137 458.723586,43.0364354 C458.723586,36.1367322 443.605834,27.9660311 413.370331,18.5243321 Z M299.440768,90.4265017 L299.440768,159.060391 L214.198506,159.060391 L214.198506,90.4265017 L299.440768,90.4265017 Z M295.44,94.426 L218.198,94.426 L218.198,155.06 L295.44,155.06 L295.44,94.426 Z M340.743,91.566 L340.754,91.559 L332.401,97.411 L332.401,241.178 L334.012883,241.12709 C349.245831,240.647556 359.728756,240.167648 365.375122,239.695815 L365.386,239.694 L366.52587,237.849171 L366.623289,237.69136 L366.734893,237.543241 C379.987738,219.95418 392.6846,200.866321 404.824643,180.279391 L405.483,179.158 L405.186046,179.304912 C402.174856,180.757433 398.572333,181.528294 394.405333,181.578071 L393.972252,181.580647 C383.739926,181.580647 377.252727,174.305405 374.726277,161.076726 C371.038549,138.844604 359.943869,117.95362 341.346034,98.3546261 L338.616715,95.4783832 L341.468925,92.723959 L350.211721,84.2809012 L352.379603,82.1873426 L354.989833,83.6937955 C363.532782,88.6242232 371.300631,93.8041189 378.292396,99.2354548 L379.168,99.922 L379.694518,98.8105737 C391.854658,72.9583526 401.613348,46.5123571 408.97204,19.4704026 L409.506198,17.4906593 L410.58346,13.463579 L414.562637,14.7061643 C446.970809,24.8263267 462.723586,33.3402402 462.723586,43.0364354 C462.723586,50.4272474 454.649773,53.8549212 439.220882,55.2559837 L438.833,55.29 L438.381996,56.1392189 C427.376394,76.7032065 413.774058,96.3676584 397.580034,115.130613 L396.629,116.225 L396.738181,116.34545 C409.520645,130.51641 416.105275,144.023257 416.274148,156.917582 L416.277481,157.426251 C416.277481,158.360097 416.249394,159.268837 416.193456,160.152123 L416.184,160.279 L416.779049,159.19276 C427.944261,138.713411 438.60805,116.884717 448.7697,93.7064454 L449.592517,91.8241686 L451.183894,88.1731338 L454.84176,89.7487433 C486.346635,103.319325 501.519744,113.216315 501.519744,122.292236 C501.519744,126.883309 498.176308,129.951152 492.679001,131.632543 C488.727788,132.84105 483.283302,133.488205 476.270279,133.620342 L475.657,133.63 L475.529562,133.827395 C452.850005,168.597241 426.523047,202.977082 396.550365,236.96775 L396.303,237.246 L396.959074,237.187705 C423.890544,234.756083 443.570864,232.766251 455.97311,231.222047 L456.324,231.178 L456.189451,230.819968 C452.315937,220.642176 446.545741,210.042089 438.868497,199.027168 L438.241838,198.133157 L435.990531,194.939409 L439.130732,192.613994 L448.693165,185.53272 L451.165611,183.701798 L453.569686,185.621612 C488.303771,213.359084 505.891142,239.374738 505.891142,263.917722 C505.891142,280.869625 498.087047,290.250971 483.3127,290.250971 C471.861139,290.250971 465.596452,282.159826 464.857629,267.812947 L464.842,267.48 L464.779489,266.798614 C464.289332,261.581735 463.720307,257.1575 463.077726,253.538315 L463.061,253.447 L462.812869,253.519389 C439.647154,260.168755 408.101434,267.574846 368.153494,275.746408 L367.895,275.799 L367.856676,275.927355 C364.295609,287.461298 359.994347,293.621527 353.796178,293.788137 L353.53682,293.791608 C344.415948,293.791608 337.992727,281.521573 332.437554,256.717368 L332.401,256.555 L332.401281,283.169697 L295.440768,283.169697 L295.44,263.56 L218.198,263.56 L218.198506,288.616831 L181.237994,288.616831 L181.237994,57.3500871 L186.683832,59.4612803 C200.492734,64.81459 210.161793,68.5974655 215.753668,70.8355188 L216.258263,71.0377214 C217.819487,71.6641402 219.032506,72.1586308 219.898884,72.521833 L219.933,72.536 L230.187,72.536 L230.314601,72.014711 C235.443046,50.6630135 238.806788,28.2282841 240.404118,4.70867371 L240.53314,2.74619484 L240.802606,-1.49206494 L245.017165,-0.969616145 C283.018131,3.74109273 301.255069,9.67543867 301.255069,20.1584723 C301.255069,26.9921141 293.436316,31.569835 278.016198,35.7202743 L277.569,35.839 L277.436818,36.0939726 C269.511007,51.1509032 262.823555,63.1973415 257.363319,72.2483505 L257.189,72.536 L293.274,72.536 L311.479889,52.0879835 L314.079787,49.1676953 L317.05852,51.7004221 C337.344705,68.9491535 346.335112,78.1749986 346.335112,83.3452274 C346.335112,86.5459177 344.37185,89.1591963 340.989596,91.4058832 L340.743,91.566 Z" id="形状" fill="#FFFFFF" fill-rule="nonzero"></path>
    </g>
</svg>