<?xml version="1.0" encoding="UTF-8"?>
<svg width="512px" height="512px" viewBox="0 0 512 512" version="1.1" xmlns="http://www.w3.org/2000/svg" xmlns:xlink="http://www.w3.org/1999/xlink">
    <title>favicon@1x</title>
    <g id="favicon" stroke="none" stroke-width="1" fill="none" fill-rule="evenodd">
        <rect id="base" fill="#68361A" x="0" y="0" width="512" height="512" rx="160"></rect>
        <path d="M243.897545,307.034965 L243.897545,268.543303 C268.614728,269.819975 280.973319,272.947821 280.973319,277.926842 C280.973319,280.990855 276.106724,284.310203 266.373533,287.884884 L266.373533,307.034965 L383.940235,307.034965 L403.342583,282.714363 C404.239061,283.608033 406.864461,285.842209 411.218783,289.416891 C416.981857,294.01291 423.385272,300.39627 430.429029,308.566971 L426.010672,316.801506 L272.328709,316.801506 C272.584845,317.056841 273.097118,317.439842 273.865528,317.950511 C274.377801,318.333513 274.762006,318.588847 275.018143,318.716514 C317.024546,353.441994 370.685165,378.656267 436,394.359333 C428.059765,399.97669 421.464248,407.572889 416.213447,417.147929 C355.63714,395.572171 305.690502,364.612874 266.373533,324.270038 L266.373533,434 L243.897545,434 L243.897545,335.951587 C197.53682,375.911422 143.235859,405.211045 80.9946638,423.850457 L76,414.849919 C139.265742,391.359154 190.877268,358.676349 230.834578,316.801506 L89.6392743,316.801506 L85.7972252,307.034965 L243.897545,307.034965 Z M230.066169,129.705218 L240.055496,129.705218 C244.153682,113.363816 246.779082,96.1287431 247.931697,78 C272.648879,81.0640129 285.007471,85.0855299 285.007471,90.0645508 C285.007471,93.1285637 279.75667,96.0010758 269.255069,98.6820871 C261.955176,112.597812 256.128068,122.938856 251.773746,129.705218 L283.470651,129.705218 L297.109925,114.385153 C310.172892,125.4922 316.704376,132.194728 316.704376,134.492738 C316.704376,135.641743 315.807898,136.790748 314.014941,137.939753 L306.90715,142.918774 L306.90715,272.181818 L286.54429,272.181818 L286.54429,258.39376 L226.608324,258.39376 L226.608324,276.011834 L206.245464,276.011834 L206.245464,120.321678 C220.076841,125.683701 228.017076,128.811547 230.066169,129.705218 Z M226.608324,139.471759 L226.608324,187.729962 L286.54429,187.729962 L286.54429,139.471759 L226.608324,139.471759 Z M286.54429,248.627219 L286.54429,197.496503 L226.608324,197.496503 L226.608324,248.627219 L286.54429,248.627219 Z M107.120598,251.30823 C128.764141,219.519096 148.03842,183.070109 164.943436,141.961269 C184.537887,149.365967 194.335112,155.493993 194.335112,160.345347 C194.335112,163.920029 189.276414,165.89887 179.159018,166.281872 C163.534685,193.347319 144.068303,221.17877 120.759872,249.776224 L123.257204,249.776224 C142.595518,247.478214 158.475987,245.116371 170.898613,242.690694 C167.953042,231.711314 163.854856,221.497938 158.604055,212.050565 L166.096051,207.454545 C186.58698,227.370629 196.832444,245.499372 196.832444,261.840775 C196.832444,272.820154 192.478122,278.309844 183.769477,278.309844 C177.366062,278.309844 173.972252,273.203156 173.588047,262.989779 C173.588047,260.053434 173.203842,256.414918 172.435432,252.074233 C152.072572,259.351264 130.685165,265.606957 108.273212,270.841313 C106.22412,279.267348 103.726788,283.480366 100.781217,283.480366 C96.1707577,283.480366 91.3041622,273.266989 86.1814301,252.840237 C98.9882604,252.074233 105.967983,251.563565 107.120598,251.30823 Z M334.569904,247.095212 L336.106724,244.605702 C357.750267,215.880581 377.280683,181.538103 394.697972,141.578268 C415.445037,150.514972 425.81857,157.281334 425.81857,161.877353 C425.81857,165.324368 420.183565,167.047875 408.913554,167.047875 C391.624333,193.730321 371.261473,220.093599 347.824973,246.137708 C373.822839,243.839699 391.432231,242.052358 400.653148,240.775686 C397.835646,232.094316 393.097118,223.029944 386.437567,213.582571 L393.161153,208.60355 C416.981857,227.625964 428.892209,245.244038 428.892209,261.457773 C428.892209,271.926484 424.537887,277.160839 415.829242,277.160839 C409.425827,277.160839 406.032017,272.692487 405.647812,263.755783 C405.135539,258.138426 404.495197,253.733907 403.726788,250.542227 C386.94984,255.521248 363.19317,261.138605 332.456777,267.394298 C330.151547,275.564999 327.526147,279.65035 324.580576,279.65035 C319.457844,279.65035 314.911419,269.181639 310.941302,248.244217 C323.107791,247.861216 330.983991,247.478214 334.569904,247.095212 Z M113.844184,154.02582 C123.577375,135.641743 131.83778,114.448987 138.6254,90.4475524 C159.884739,96.4479111 170.514408,101.809934 170.514408,106.53362 C170.514408,109.597633 165.391676,111.704142 155.146211,112.853147 C145.925293,129.322216 134.655283,145.280617 121.336179,160.728349 C130.941302,170.431056 135.743863,179.559261 135.743863,188.112964 C135.743863,197.560337 131.83778,202.284024 124.025614,202.284024 C118.26254,202.284024 114.420491,198.198673 112.499466,190.027972 C108.529349,174.707907 99.3724653,160.21768 85.0288154,146.557289 L90.5997866,140.429263 C99.4364995,144.642281 107.184632,149.174467 113.844184,154.02582 Z M343.598719,150.578806 C353.33191,130.535055 361.016009,109.980635 366.651014,88.915546 C387.910352,95.5542406 398.540021,101.299265 398.540021,106.150619 C398.540021,109.342299 393.289221,111.32114 382.78762,112.087144 C374.46318,128.045544 363.897545,143.237942 351.090715,157.664336 C360.951974,168.005379 365.882604,177.644253 365.882604,186.580958 C365.882604,196.028331 361.592316,200.752017 353.01174,200.752017 C347.376734,200.752017 343.790822,196.7305 342.254002,188.687466 C339.564568,172.473731 331.496265,157.281334 318.049093,143.110274 L324.196371,137.173749 C331.496265,141.386767 337.963714,145.855119 343.598719,150.578806 Z" id="形状" fill="#FFFFFF" fill-rule="nonzero"></path>
    </g>
</svg>